<svg width="6" height="18" viewBox="0 0 6 18" fill="none" xmlns="http://www.w3.org/2000/svg">
<path d="M5.7211 2.05145L5.69134 3.75722C5.6883 3.93112 5.54524 4.06927 5.37134 4.06624L1.26417 3.99451C1.09026 3.99148 0.952108 3.84841 0.955143 3.67451L0.984903 1.96874C0.996974 1.27681 1.56921 0.724207 2.26302 0.734472L4.48681 0.773307C5.18062 0.783573 5.73323 1.35582 5.7211 2.05145ZM0.929579 5.13977L0.760059 14.8564L2.56963 17.5288C2.81316 17.8903 3.34046 17.8976 3.59827 17.5468L5.49814 14.9373L5.66766 5.22066C5.67069 5.04675 5.53254 4.90369 5.35863 4.90066L1.25146 4.82893C1.07567 4.82771 0.932612 4.96586 0.929579 5.13977ZM2.28047 12.5696C2.07696 12.5661 1.91699 12.4004 1.92054 12.1969L2.01996 6.49867C2.02351 6.29516 2.18915 6.1352 2.39266 6.13876C2.59617 6.14231 2.75614 6.30796 2.75259 6.51147L2.65317 12.2097C2.64962 12.4132 2.48398 12.5732 2.28047 12.5696ZM3.12971 14.8089L4.03324 13.9364L4.6931 14.6197L3.68439 16.0049L2.53364 15.9848L1.57387 14.5652L2.25716 13.9054L3.12971 14.8089Z" fill="#2B2E86"/>
</svg>
