<svg width="65" height="72" viewBox="0 0 65 72" fill="none" xmlns="http://www.w3.org/2000/svg">
<path d="M64.7836 44.0477C64.7836 51.5297 64.7164 59.0126 64.8186 66.4937C64.8572 69.364 62.5945 71.6956 59.8263 71.4805C58.8931 71.4079 57.9498 71.4704 57.012 71.4686C53.978 71.4621 52.0988 69.5681 52.0961 66.513C52.0924 62.9881 52.0924 59.4638 52.0961 55.94C52.0961 44.5019 52.1393 33.0619 52.0657 21.6237C52.0472 18.7681 54.0231 16.3832 57.1858 16.4926C58.1971 16.5285 59.2158 16.477 60.2289 16.5055C62.8326 16.5781 64.7754 18.5466 64.7799 21.1475C64.7935 28.7797 64.7947 36.4131 64.7836 44.0477Z" fill="#E92C24"/>
<path d="M34.8923 50.2868C34.8923 44.8856 34.8923 39.4842 34.8923 34.0825C34.8923 31.1698 36.7927 29.2685 39.6943 29.2603C40.8361 29.2603 41.9771 29.2465 43.118 29.2603C45.5416 29.297 47.5642 31.2535 47.5679 33.6623C47.5869 44.7943 47.5869 55.9269 47.5679 67.0601C47.5634 69.4331 45.5582 71.4107 43.1916 71.4576C41.9238 71.4824 40.656 71.4769 39.3881 71.4576C36.9008 71.4505 34.8898 69.4288 34.8959 66.9415C34.8831 61.3985 34.8933 55.8408 34.8923 50.2868Z" fill="#E92C24"/>
<path d="M30.378 57.8027C30.378 60.719 30.378 63.6347 30.378 66.5498C30.3735 69.5443 28.4712 71.4603 25.5007 71.4686C24.3597 71.4686 23.2179 71.4851 22.0778 71.4621C19.6984 71.4143 17.7089 69.4569 17.6997 67.0803C17.6752 60.9197 17.6736 54.7598 17.6951 48.6005C17.7015 46.0382 19.6432 44.1066 22.2313 44.0432C23.4266 44.0137 24.6153 44.0155 25.8068 44.0432C28.3922 44.1001 30.3597 46.0924 30.3744 48.6787C30.39 51.7181 30.3772 54.7604 30.378 57.8027Z" fill="#E92C24"/>
<path d="M13.1754 61.3065C13.1754 63.081 13.1827 64.8554 13.1754 66.6298C13.1606 69.5066 11.2152 71.4521 8.35131 71.4659C7.36298 71.4659 6.37371 71.4659 5.38537 71.4659C2.5564 71.4604 0.649572 69.9571 0.485006 67.1493C0.25057 63.1316 0.218374 59.0909 0.514425 55.0722C0.683599 52.7737 2.62903 51.1252 4.9422 51.0453C6.18247 51.003 7.42458 51.0066 8.66759 51.0453C11.1467 51.1154 13.1302 53.1266 13.1662 55.6064C13.2002 57.5067 13.1735 59.4081 13.1735 61.3065H13.1754Z" fill="#E92C24"/>
<path d="M50.1818 3.30858C49.4177 3.25236 48.6501 3.26313 47.8879 3.34077C47.6629 3.37401 47.4359 3.39274 47.2085 3.39684C46.4877 3.36283 45.9213 2.83694 45.8735 2.17681C45.8257 1.51668 46.3084 0.940222 47.0688 0.849219C47.8291 0.758185 48.583 0.726935 49.3415 0.690161C50.8594 0.61846 52.3755 0.539374 53.8971 0.506278C55.1006 0.47869 55.5832 1.08091 55.4361 2.28715C55.186 4.34841 54.9544 6.41245 54.7135 8.47465C54.7008 8.6261 54.6784 8.77659 54.6464 8.92515C54.4496 9.71491 53.8778 10.1204 53.1496 9.99532C52.483 9.88039 52.0518 9.2929 52.1272 8.52981C52.2191 7.54789 52.3598 6.56875 52.4757 5.58776C52.4987 5.39744 52.6081 5.19977 52.4113 4.96624C51.3503 5.90311 50.2967 6.83813 49.2376 7.76763C41.2959 14.7311 32.8632 21.0372 23.8771 26.6023C17 30.8613 9.82875 34.6259 2.4176 37.8676C2.21135 37.968 1.9958 38.0481 1.77401 38.1066C1.09826 38.2565 0.495145 37.9567 0.269894 37.383C0.0213287 36.7615 0.308377 36.0546 0.919904 35.7824C2.10591 35.2078 3.3195 34.6911 4.51564 34.1376C11.7202 30.8051 18.6826 26.9723 25.3518 22.6673C32.2849 18.1954 38.8668 13.2555 45.1739 7.93772C46.8389 6.5338 48.4506 5.06554 50.0862 3.6267C50.1934 3.55967 50.2342 3.42361 50.1818 3.30858Z" fill="#E92C24"/>
</svg>
