<svg width="83" height="69" viewBox="0 0 83 69" fill="none" xmlns="http://www.w3.org/2000/svg">
<path d="M82.5372 51.3929C82.2136 51.8438 81.7863 52.2103 81.2913 52.4614C72.0848 57.7699 62.882 63.0848 53.6827 68.406C52.8748 68.876 52.2123 68.889 51.3917 68.406C42.3419 63.1631 33.2808 57.9273 24.2083 52.6986C23.7305 52.4133 23.1833 52.2655 22.6268 52.2713C16.0147 52.2869 9.40344 52.2869 2.79279 52.2713C2.55121 52.2713 2.31189 52.2713 2.07269 52.2713C1.20069 52.2264 0.632204 51.6985 0.660036 50.9677C0.687746 50.2368 1.22424 49.7794 2.07898 49.7731C4.45117 49.7602 6.82331 49.7731 9.19763 49.7731C13.3563 49.7731 17.515 49.7559 21.6737 49.788C22.3811 49.788 22.5714 49.5977 22.5648 48.8925C22.5328 44.7873 22.5264 40.682 22.5648 36.5766C22.5648 35.8031 22.3084 35.6705 21.616 35.677C17.6966 35.7047 13.7773 35.6876 9.86212 35.694C9.33002 35.694 8.84491 35.6128 8.51788 35.1491C8.24365 34.7745 8.20868 34.2759 8.42829 33.8668C8.69965 33.3262 9.18689 33.1702 9.76178 33.1702C13.0927 33.1702 16.4251 33.1702 19.7589 33.1702C20.5048 33.1702 21.2548 33.153 21.9986 33.1702C22.4131 33.183 22.5541 33.0333 22.5521 32.6166C22.5413 28.2976 22.5349 23.9808 22.5521 19.6618C22.5521 18.9501 22.1054 19.0762 21.6971 19.0762H2.58972C2.3233 19.0859 2.05646 19.0816 1.79053 19.0635C1.16956 19.0416 0.67682 18.5329 0.674928 17.9116C0.598512 17.324 0.991151 16.778 1.57257 16.6635C1.90991 16.5892 2.25519 16.5576 2.60047 16.5695C9.31793 16.5695 16.0361 16.5695 22.7551 16.5695C23.2317 16.5784 23.7015 16.4548 24.1121 16.2125C31.6973 11.8231 39.2839 7.43855 46.8717 3.05897C47.0854 2.94148 47.4788 2.89442 47.3997 2.60169C47.3463 2.40504 46.9722 2.51405 46.735 2.51197C43.4583 2.51197 40.1814 2.51197 36.9045 2.51197C36.585 2.52583 36.265 2.50068 35.9514 2.43702C35.2889 2.27259 34.9791 1.79597 35.0389 1.1313C35.0549 0.543589 35.5202 0.0670876 36.1074 0.0372414C36.3461 0.0150856 36.5859 0.00788348 36.8255 0.0158181C41.8647 0.0158181 46.9039 0.0158181 51.9409 0.0158181C52.5527 0.00275653 53.1561 0.158701 53.6846 0.466746C62.8826 5.78797 72.0856 11.1008 81.2935 16.4049C81.7884 16.6561 82.2156 17.0226 82.5393 17.4735L82.5372 51.3929ZM25.0631 35.2388C25.0631 40.0109 25.0631 44.783 25.0524 49.5572C25.0026 50.0322 25.2602 50.4865 25.6935 50.6877C33.9568 55.4377 42.2138 60.2047 50.4642 64.9889C51.0925 65.3543 51.2784 65.3371 51.2763 64.5358C51.2578 54.9903 51.2578 45.4448 51.2763 35.8992C51.3184 35.4229 51.058 34.9709 50.6245 34.7687C42.3611 30.0144 34.1043 25.2474 25.8538 20.4675C25.2126 20.0913 25.046 20.1341 25.0503 20.9205C25.0759 25.6968 25.0631 30.4732 25.0631 35.2388ZM53.7659 50.2773C53.7659 55.0216 53.7659 59.7659 53.7659 64.5101C53.7659 65.1662 53.7895 65.4589 54.546 65.0187C62.835 60.2089 71.1353 55.414 79.447 50.6343C79.8138 50.4766 80.0415 50.1051 80.0156 49.7068C80.0012 40.0587 80.0012 30.4105 80.0156 20.7624C80.0156 20.164 79.9022 20.07 79.3744 20.3842C77.2373 21.6428 75.1002 22.8888 72.9418 24.0983C72.4438 24.374 72.3007 24.6967 72.3007 25.2353C72.322 28.9666 72.3007 32.6979 72.3242 36.4293C72.3764 37.1336 71.9901 37.7977 71.3518 38.1003C68.8259 39.53 66.3212 40.9961 63.8038 42.4428C62.342 43.2827 61.47 42.7634 61.468 41.0516C61.468 37.908 61.4465 34.7622 61.4807 31.6187C61.4914 30.8023 61.2885 30.8172 60.6751 31.1806C58.6149 32.403 56.5385 33.5983 54.4455 34.7666C53.9846 34.9783 53.7101 35.4609 53.7638 35.9655C53.7745 40.7312 53.7659 45.5074 53.7659 50.2773ZM52.5628 2.73414C52.3705 2.83454 52.1803 2.92439 51.9986 3.02906C49.806 4.28993 47.6219 5.56788 45.4186 6.80738C44.8351 7.13441 44.7947 7.27754 45.4186 7.63014C53.7859 12.4 62.1511 17.1843 70.5142 21.9826C70.836 22.2161 71.2703 22.2213 71.5975 21.9955C73.7532 20.7232 75.9208 19.4732 78.1007 18.245C78.6349 17.9415 78.6862 17.794 78.1007 17.4628C69.7476 12.6559 61.3995 7.84028 53.0565 3.01618C52.8962 2.92225 52.7316 2.83454 52.5628 2.73414ZM33.8677 13.522C33.7011 13.6075 33.5344 13.6867 33.3762 13.7785C31.2392 15.0137 29.1022 16.2597 26.9352 17.4799C26.4393 17.7619 26.3796 17.8923 26.9352 18.2086C35.3125 23.027 43.6826 27.8603 52.0457 32.7086C52.3518 32.9213 52.7592 32.9171 53.0607 32.6979C55.2192 31.4306 57.384 30.1719 59.5638 28.9453C60.1259 28.6268 60.1237 28.4857 59.5638 28.1672C51.1909 23.3931 42.8228 18.6096 34.4597 13.817C34.2589 13.7122 34.0643 13.6268 33.8572 13.522H33.8677ZM68.3771 23.7992C68.3044 23.5385 68.1057 23.4872 67.9497 23.3995C59.5339 18.5855 51.1188 13.7706 42.7045 8.95515C42.3985 8.74165 41.9908 8.74598 41.6894 8.96583C40.1336 9.89332 38.5665 10.7994 36.9879 11.6842C36.4729 11.9705 36.5155 12.1115 36.9879 12.383C45.4337 17.2014 53.8728 22.0282 62.3057 26.8637C62.5426 27.0394 62.8636 27.0496 63.1114 26.8894C64.7418 25.932 66.3832 24.9959 68.0266 24.0491C68.142 23.9744 68.2574 23.876 68.3771 23.7992ZM63.9747 34.2366C63.9747 35.7325 63.9982 37.2284 63.9747 38.7116C63.9597 39.3804 64.1691 39.3527 64.6414 39.0728C66.2015 38.1517 67.7701 37.252 69.343 36.3565C69.6385 36.2276 69.8226 35.9283 69.8046 35.6063C69.7917 32.596 69.7917 29.5856 69.8046 26.5752C69.8046 26.0131 69.6272 26.0131 69.2083 26.2589C67.6241 27.1865 66.0328 28.1025 64.4342 29.0072C64.1199 29.1603 63.9373 29.4958 63.979 29.8427C63.9854 31.3067 63.9747 32.7727 63.9747 34.2366Z" fill="#E92C24"/>
<path d="M18.1198 0.0200772C20.8873 0.0200772 23.657 0.0200772 26.4265 0.0200772C27.4951 0.0200772 28.0978 0.748776 27.8114 1.64428C27.5848 2.34527 27.0121 2.5119 26.3561 2.5119H10.3816C10.0885 2.52014 9.79538 2.51233 9.50321 2.4884C8.70603 2.40301 8.25302 1.91143 8.3107 1.1784C8.36844 0.44537 8.82572 0.0306973 9.5737 0.0222134C10.9308 0.00512356 12.2878 0.0222134 13.6469 0.0222134L18.1198 0.0200772Z" fill="#E92C24"/>
<path d="M42.7859 35.6299C42.7859 36.2199 41.9822 36.8396 41.1916 36.598C40.9673 36.5174 40.7523 36.4129 40.5503 36.286C36.5129 33.9566 32.4759 31.6273 28.4397 29.2978C27.9291 29.0031 27.5143 28.6566 27.5272 28.0157C27.5464 27.0199 28.5573 26.4961 29.5104 27.0325C31.4828 28.1418 33.4361 29.2872 35.3959 30.4176C37.5658 31.6701 39.7348 32.9203 41.9032 34.1684C42.4648 34.4334 42.8126 35.0095 42.7859 35.6299Z" fill="#E92C24"/>
<path d="M36.4088 37.5638C36.4429 38.5769 35.3852 39.1452 34.3999 38.6046C33.1177 37.8994 31.8654 37.1494 30.5981 36.4184C29.8159 35.9675 29.0231 35.5315 28.2474 35.0593C27.5187 34.6125 27.3178 33.9374 27.6832 33.3026C28.0486 32.668 28.7517 32.4756 29.4803 32.8751C31.5619 34.0571 33.6264 35.2645 35.6973 36.4591C36.1078 36.6813 36.3764 37.098 36.4088 37.5638Z" fill="#E92C24"/>
</svg>
