<svg width="30" height="30" viewBox="0 0 30 30" fill="none" xmlns="http://www.w3.org/2000/svg">
<path d="M29.5358 14.9473C29.5247 22.9146 23.1211 29.2784 15.1253 29.2675C7.24663 29.2572 0.900803 22.7956 0.918433 14.8006C0.935793 7.01576 7.4072 0.636577 15.2726 0.650413C23.1379 0.664243 29.5464 7.0871 29.5358 14.9473ZM12.8397 19.3182C12.8397 20.605 12.8623 21.8926 12.8283 23.1786C12.8153 23.6687 12.9857 23.7889 13.443 23.7704C14.2567 23.7382 15.0721 23.7287 15.8842 23.7729C16.4327 23.803 16.5862 23.6267 16.5802 23.0787C16.5531 20.5434 16.5759 18.0064 16.5599 15.4714C16.5572 15.0588 16.6635 14.8895 17.0983 14.9177C17.6072 14.9508 18.1198 14.9177 18.6306 14.927C18.8972 14.9316 19.057 14.857 19.0833 14.5578C19.1527 13.7666 19.2319 12.9759 19.3255 12.1874C19.3632 11.8686 19.2713 11.7479 18.9363 11.7599C18.3124 11.7818 17.6864 11.7417 17.0647 11.7743C16.6548 11.7957 16.536 11.643 16.5629 11.257C16.59 10.8615 16.5629 10.4625 16.5705 10.0651C16.5824 9.31431 16.7964 9.106 17.5689 9.0946C18.023 9.08809 18.4776 9.08186 18.9314 9.09596C19.2252 9.10491 19.3301 8.99072 19.3247 8.69749C19.3106 7.94072 19.3144 7.18339 19.3231 6.42662C19.3258 6.1749 19.2572 6.03982 18.9748 6.04199C17.9169 6.04985 16.8528 5.95085 15.799 6.0919C14.4368 6.27418 13.5176 7.03204 13.0719 8.33945C12.8549 8.97499 12.8278 9.63547 12.8386 10.3014C12.846 10.7546 12.9876 11.318 12.7746 11.6327C12.5365 11.9837 11.9338 11.7393 11.4941 11.7564C11.1957 11.7677 11.0964 11.8608 11.1067 12.1532C11.1241 12.6447 11.1108 13.137 11.1108 13.629C11.1108 14.8863 11.1108 14.8998 12.3634 14.9175C12.7288 14.9226 12.8547 15.026 12.849 15.4011C12.8273 16.7066 12.8395 18.0124 12.8397 19.3182Z" fill="white"/>
</svg>
