<svg width="903" height="226" viewBox="0 0 903 226" fill="none" xmlns="http://www.w3.org/2000/svg">
<g opacity="0.24">
<path d="M667.841 94.2631C681.232 96.183 701.461 98.429 721.767 98.2404C732.571 98.1379 744.006 97.6067 754.88 96.8922C753.768 95.65 752.553 94.4115 751.236 93.1764C740.724 93.8722 729.737 94.3898 719.495 94.4868C718.729 94.4868 717.961 94.4868 717.196 94.4868C713.549 90.9358 702.312 79.9261 690.993 68.0621L703.357 66.819C703.76 66.7886 704.155 66.6979 704.528 66.5492C705.137 66.2797 705.273 65.8914 704.78 65.5059C704.052 64.9314 702.229 64.5917 700.725 64.7427L688.96 65.9238C686.733 63.5698 684.517 61.1996 682.368 58.8619C679.661 58.0206 676.903 57.1963 674.096 56.3892C677.077 59.6923 680.251 63.1061 683.448 66.4791L666.373 68.1942C659.628 62.998 644.497 59.4012 629.635 59.377L619.104 52.8085C626.756 51.4117 635.295 50.0824 644.769 48.8932C642.481 48.3719 640.168 47.8615 637.829 47.3617C630.175 48.3756 622.853 49.5171 615.862 50.786L600.244 41.0521L539.802 53.2722C536.99 52.661 534.143 52.0498 531.26 51.4387C541.531 49.3623 551.464 47.084 560.995 44.6167C569.106 42.5153 576.913 40.2827 584.415 37.9187C580.385 37.34 576.311 36.781 572.192 36.2417C557.792 40.6178 540.808 44.9619 521.04 48.8285C520.699 48.8885 520.364 48.9788 520.04 49.0983C516.072 48.2913 512.052 47.4821 507.978 46.6714C506.573 46.3945 505.156 46.1187 503.727 45.8435L503.342 29.4305C501.322 29.2867 499.296 29.1509 497.263 29.0234L497.628 44.6626C488.168 42.8649 478.429 41.0808 468.409 39.3101C458.39 37.5396 448.14 35.803 437.66 34.1006L429.158 26.3485C424.246 26.2766 419.32 26.229 414.381 26.2056L419.942 31.2749C408.118 29.4305 397.031 27.7695 387.024 26.3405C372.962 26.54 358.822 26.9453 344.607 27.5565L402.988 41.5428L429.603 67.5713L400.798 67.3018C397.489 62.244 393.352 57.7227 388.543 53.9086C387.027 52.7141 385.46 51.5574 383.858 50.4382C383.819 50.406 383.771 50.3737 383.722 50.3412C373.013 42.875 360.767 37.0911 351.868 33.3809C345.987 30.9297 340.892 29.088 337.326 27.8747C335.008 27.988 332.687 28.1066 330.363 28.2305C333.313 29.1716 339.817 31.3475 347.69 34.6346C355.493 37.8944 365.944 42.802 375.543 49.0793L307.022 41.9418L292.786 30.7275C290.922 30.8785 289.057 31.0312 287.192 31.1859L301.544 42.4891L270.199 57.4274C269.982 57.5037 269.812 57.6659 269.731 57.8722L231.37 50.592L234.147 36.7377C232.022 37.0021 229.91 37.2716 227.813 37.5466L225.424 49.4568L202.42 45.1129L205.903 41.6858C206.218 41.4222 206.343 41.0084 206.223 40.6261C199.869 41.5858 193.639 42.5864 187.533 43.6272L165.016 65.781L132.059 54.9359C128.339 55.8347 124.69 56.7496 121.111 57.6809L157.849 69.7797L149.681 72.2278L124.061 63.5321C119.742 62.0652 114.358 61.1835 108.894 61.046H108.732C85.014 67.7627 64.7279 75.194 48.3556 83.1079L55.1573 81.2206L84.0646 70.3835C96.1404 74.5983 107.791 79.093 114.494 82.7874L71.6769 95.6195L47.4317 83.5582C46.283 84.1174 45.1578 84.6781 44.0563 85.241L67.4599 96.8839L31.0282 107.81L17.9633 101.878C15.953 103.558 14.109 105.249 12.4312 106.95L24.4363 112.388L52.2524 143.316C58.7225 150.51 68.9733 157.308 82.7071 163.521C95.9732 169.523 111.776 174.649 129.693 178.771L125.459 185.903C118.963 184.361 112.376 182.854 105.697 181.382C76.1802 174.875 53.2018 170.893 45.5754 169.62C30.6796 159.573 17.3625 149.426 14.2989 143.481C12.1988 139.404 7.52549 134.583 0.346837 129.087C0.158177 130.75 0.134465 132.427 0.276006 134.095C3.92908 137.33 6.79429 140.533 8.31333 143.457C10.5239 147.749 17.7479 154.318 29.8521 163.065L21.0014 163.688C21.946 164.382 22.9144 165.069 23.9063 165.75L32.7428 165.128C34.772 166.566 36.9259 168.053 39.2045 169.59C39.1767 169.614 39.1511 169.64 39.1279 169.668C38.7 170.208 39.6664 170.841 41.2903 171.1L41.483 171.13C44.6836 173.271 48.1034 175.511 51.7423 177.852C53.2812 178.842 54.82 179.818 56.3391 180.78L51.9917 180.737C53.7148 181.474 55.4728 182.203 57.2658 182.924L59.7938 182.951C61.1711 183.811 62.5315 184.658 63.8691 185.48C68.6058 187.249 73.5644 188.964 78.7451 190.625C70.566 185.701 60.1197 179.251 49.9993 172.559C60.5108 174.398 79.7341 177.952 103.211 183.124C109.679 184.55 116.733 186.159 124.22 187.947L116.531 200.966C118.402 201.402 120.291 201.832 122.2 202.254L129.866 189.339C140.984 192.051 152.915 195.133 165.195 198.566L154.649 208.661C156.576 208.999 158.518 209.33 160.473 209.653L170.494 200.065C188.083 205.091 206.232 210.829 223.576 217.23L222.791 217.913C225.761 218.215 228.746 218.506 231.747 218.786C232.724 218.42 232.577 217.781 231.384 217.327L230.721 217.082L245.016 204.644L253.651 206.58C257.01 207.324 260.407 207.906 263.828 208.322L278.525 222.267C280.668 222.39 282.814 222.505 284.964 222.613L270.562 208.947C276.221 209.323 281.904 209.242 287.549 208.704C288.698 208.588 289.824 208.451 290.927 208.294C300.563 206.911 307.195 204.045 309.414 200.432C314.83 201.672 322.663 203.565 331.409 205.976C332.248 206.208 333.103 206.446 333.974 206.693C323.918 212.007 316.343 216.365 315.629 216.777C314.832 217.236 315.385 217.913 316.864 218.287C317.764 218.508 318.697 218.577 319.622 218.492C320.095 218.462 320.557 218.34 320.979 218.134C321.155 218.031 328.838 213.609 339.117 208.179C352.882 212.245 369.195 217.837 380.704 224.233L380.988 224.398C381.855 224.883 383.476 225.128 384.788 224.996C384.938 224.98 385.071 224.961 385.219 224.937C386.092 224.783 386.545 224.473 386.514 224.128C386.497 223.928 386.318 223.715 385.964 223.518C373.84 216.718 356.606 210.813 342.187 206.561C350.76 202.09 360.684 197.182 369.456 193.521C371.723 194.351 373.88 195.19 375.929 196.034C388.787 201.327 402.699 208.219 413.443 213.814C412.961 214.084 412.876 214.434 413.338 214.79C413.976 215.292 415.45 215.615 416.821 215.599C422.659 218.681 427.262 221.213 429.796 222.61C431.794 222.509 433.792 222.406 435.79 222.3C433.684 221.119 428.852 218.438 422.441 215.046L539.536 203.282L545.745 211.865C547.564 211.611 549.373 211.354 551.172 211.093L545.022 202.592C545.663 202.322 545.81 201.928 545.306 201.532C544.861 201.23 544.352 201.024 543.815 200.928L536.208 190.412C542.544 190.626 548.889 190.428 555.196 189.819C558.809 189.47 562.397 188.93 565.946 188.201L604.138 202.023C605.778 201.69 607.406 201.357 609.023 201.022L570.529 187.09C578.229 184.933 583.656 181.907 586.003 178.367L590.16 172.1C609.596 181.627 625.172 192.547 630.302 196.284C631.875 195.911 633.438 195.533 634.989 195.152C631.356 192.529 624.095 187.464 614.626 181.81L667.643 165.527L694.362 176.968C695.619 176.486 696.859 176.001 698.083 175.514L671.792 164.227L696.241 156.717L718.452 166.497C719.563 165.958 720.657 165.395 721.725 164.839L700.387 155.445L732.33 145.633C735.529 148.038 738.626 150.405 741.623 152.735C743.529 151.34 745.324 149.936 747.007 148.523C743.667 145.965 740.204 143.365 736.618 140.722C732.588 137.756 728.562 134.861 724.539 132.037C725.355 130.298 728.374 124.708 736.009 118.059C741.002 113.707 748.623 108.381 759.814 103.401C758.755 101.699 757.575 100.068 756.283 98.5179C752.883 99.861 749.646 101.287 746.574 102.797C738.579 106.72 731.664 111.205 726.018 116.118C721.39 120.162 718.395 123.786 716.522 126.504C713.236 124.27 709.955 122.086 706.679 119.952C717.185 117.415 720.73 112.267 714.351 107.241C706.753 101.255 687.878 97.6471 671.987 99.0897L670.888 98.4856C667.568 96.6738 664.262 94.9202 660.969 93.2251C663.114 93.5647 665.41 93.918 667.841 94.2631ZM669.02 70.265L685.486 68.6121C696.312 79.9371 707.008 90.4531 711.058 94.406C706.977 94.3035 702.927 94.1095 698.959 93.8505L669.02 70.265ZM626.793 61.5879L628.947 61.5393C641.7 61.251 655.074 64.2736 660.895 68.7415L615.635 73.2903C607.989 70.5345 600.471 68.1537 593.082 66.1476C588.718 64.9611 584.21 63.7765 579.561 62.5938C587.813 59.8326 599.164 56.6615 614.196 53.7333L626.793 61.5879ZM598.645 44.0342L610.956 51.7137C597.115 54.4102 584.716 57.5999 574.074 61.2185C565.222 59.02 555.906 56.8324 546.125 54.6555L598.645 44.0342ZM503.826 49.8262C525.039 53.9894 546.706 58.6381 567.244 63.6937C559.13 66.8273 553.995 69.5747 551.064 71.3707L504.07 60.1156L503.826 49.8262ZM562.44 113.006L570.659 103.113L587.612 106.872L603.112 89.4904L605.118 89.9705C617.282 92.8824 623.732 98.0004 620.805 102.409L606.575 123.848L562.44 113.006ZM605.234 125.881L595.831 140.027C590.42 136.607 584.8 133.498 579 130.716C574.941 128.766 570.851 126.999 566.728 125.417L566.524 125.342C562.804 123.918 559.077 122.654 555.344 121.548L560.802 114.972L605.234 125.881ZM583.735 103.701L572.28 101.163L585.475 85.2544L597.588 88.1555L583.735 103.701ZM549.934 120.073C539.984 117.501 529.732 116.142 519.422 116.029H518.855L525.884 105.418L538.92 107.397C539.596 107.501 540.283 107.521 540.964 107.457C541.752 107.378 542.381 107.171 542.599 106.869C542.999 106.329 542.004 105.693 540.377 105.445L527.19 103.444L532.841 94.9183L508.044 66.7489L579.915 83.9413L549.934 120.073ZM442.807 38.8167C459.811 41.6479 478.516 44.9429 497.73 48.6506L497.966 58.665L452.68 47.8093L442.807 38.8167ZM479 71.8073L461.092 55.483L500.423 64.9045L526.553 94.5894L512.417 115.926C505.555 115.802 498.841 115.565 492.36 115.217C492.967 114.461 493.523 113.668 494.024 112.844C497.376 107.297 497.75 100.894 495.134 93.8127C490.824 82.1185 479.904 72.5812 479 71.8073ZM399.216 31.9409C402.806 32.4801 406.49 33.0375 410.269 33.6127C414.048 34.1877 417.904 34.7882 421.838 35.4138L425.017 35.9181L432.862 43.0663L403.388 36.0071L399.216 31.9409ZM367.291 27.357C374.642 28.3682 382.977 29.5438 392.074 30.8785L395.342 34.0737L367.291 27.357ZM411.031 43.495L441.254 50.7323L460.052 67.8651L435.727 67.6522L411.031 43.495ZM459.593 90.9869L437.938 69.8092L462.424 70.0277L465.541 72.8669L465.618 72.9344C465.728 73.0262 476.54 82.3071 480.678 93.5161C483.675 101.621 482.557 108.512 477.325 114.187C471.941 113.729 466.808 113.189 461.945 112.569L461.242 112.477C464.181 111.035 466.1 109.242 466.961 107.101C467.823 104.96 467.619 102.431 466.335 99.6451C464.246 95.1072 460.035 91.3698 459.593 90.9843V90.9869ZM431.819 69.7554L453.925 91.3861L453.978 91.437C454.146 91.5801 469.999 105.432 454.829 111.579C442.316 109.692 432.202 107.238 425.304 104.442C417.445 101.26 413.559 92.7531 409.433 83.7471C407.339 79.1632 405.114 74.3097 402.169 69.4938L431.819 69.7554ZM310.136 44.428L379.225 51.6248C380.537 52.5576 381.827 53.5121 383.076 54.5017C387.668 58.1493 391.622 62.467 394.792 67.2935L338.531 66.7947L310.136 44.428ZM351.633 77.1167L341.274 68.9573L396.175 69.4398C399.123 74.2286 401.356 79.1038 403.45 83.6906C407.917 93.4651 411.774 101.907 421.058 105.669C429.186 108.961 440.862 111.706 455.087 113.777C455.288 113.815 455.492 113.844 455.702 113.866C461.809 114.742 468.373 115.484 475.322 116.117C471.003 119.876 464.684 123.014 456.365 125.531C447.25 128.284 437.008 131.193 426.244 134.159L394.22 120.591L392.043 121.114C391.805 121.171 371.899 125.968 347.668 132.611C334.731 126.509 321.146 120.577 306.911 114.815L344.556 100.306C345.937 99.777 347.289 99.1802 348.606 98.5179L367.529 103.078C368.407 103.282 369.315 103.345 370.215 103.264C370.705 103.236 371.183 103.104 371.613 102.878C372.366 102.409 371.763 101.735 370.263 101.373L351.516 96.8597C354.826 94.7025 356.944 92.2972 357.731 89.7061C358.99 85.5916 356.878 81.2449 351.635 77.1139L351.633 77.1167ZM225.095 125.736C223.84 125.264 221.921 125.172 220.802 125.533L201.224 131.829L172.226 130.724C163.645 122.036 150.608 108.985 139.606 98.6152L162.468 91.2538L221.553 116.384C222.665 116.796 223.865 116.951 225.053 116.835C225.322 116.809 225.588 116.762 225.849 116.695C227.056 116.371 227.09 115.705 225.926 115.209L208.556 107.821L240.62 97.0592C259.098 103.255 276.753 109.727 293.586 116.473L224.775 142.993C216.84 146.053 202.573 145.959 191.597 142.807L181.111 139.781C180.193 138.835 177.772 136.354 174.394 132.924L204.152 134.06L225.345 127.24C226.45 126.882 226.342 126.208 225.095 125.736ZM291.222 82.3232L317.029 68.7524L335.031 68.9114L346.157 77.6747C354.129 83.9547 353.937 90.4827 346.112 95.5413L291.222 82.3232ZM343.176 97.194C342.125 97.7155 340.981 98.2144 339.744 98.6906L302.524 113.035C297.483 111.028 292.369 109.04 287.181 107.074L323.907 92.5537L343.176 97.194ZM318.389 91.2214L282.629 105.351C274.541 102.333 266.279 99.3727 257.843 96.4714L287.835 84.0677L287.92 84.0328L288.141 83.9167L318.389 91.2214ZM253.073 94.8429C250.012 93.8038 246.932 92.7738 243.831 91.7528L228.777 86.7968L254.773 75.8951L282.683 82.6145L253.073 94.8429ZM223.933 85.2004L202.009 77.9795L217.764 66.9862L249.267 74.571L223.933 85.2004ZM235.014 95.1989L235.788 95.4683L204.327 106.019L166.544 89.9487L193.122 81.3932L235.014 95.1989ZM297.961 118.242C311.678 123.824 324.788 129.571 337.289 135.483C335.702 135.931 334.101 136.386 332.497 136.848C309.927 143.319 292.372 149.034 279.832 153.994L240.121 140.536L297.961 118.242ZM336.808 138.619C338.287 138.193 339.761 137.773 341.229 137.36C347.086 140.173 352.794 143.02 358.352 145.9L365.976 149.85C349.688 153.929 334.727 157.569 323.235 160.333C318.418 161.487 314.271 162.879 310.785 164.486L284.644 155.625C297.037 150.723 314.572 144.996 336.816 138.619H336.808ZM374.892 154.466L376.099 155.092C389.937 162.259 406.854 168.609 425.814 173.877C418.765 175.843 409.484 178.432 400.341 180.972L352.208 160.08C359.279 158.362 366.925 156.475 374.9 154.466H374.892ZM351.61 134.469C371.253 129.077 388.095 124.894 393.908 123.471L421.891 135.335C407.154 139.334 391.627 143.37 376.768 147.134L369.921 143.591C363.99 140.512 357.889 137.471 351.618 134.469H351.61ZM387.67 152.778L385.686 151.748C398.202 148.579 411.224 145.214 423.878 141.833L464.688 155.674L437.569 170.588L436.461 170.898C417.796 165.891 401.155 159.756 387.69 152.778H387.67ZM442.169 172.281L442.452 172.198L457.654 163.839L483.529 171.569C484.506 171.843 485.529 171.935 486.542 171.839C486.956 171.812 487.363 171.72 487.746 171.569C488.679 171.146 488.313 170.466 486.913 170.048L460.644 162.202L469.656 157.243L494.979 164.723C495.95 164.994 496.967 165.085 497.974 164.993C498.394 164.96 498.806 164.862 499.193 164.704C500.117 164.278 499.729 163.601 498.343 163.186L470.402 154.935L428.288 140.644C432.856 139.415 437.357 138.185 441.755 136.966L487.916 153.104L505.487 146.784C514.541 149.651 523.206 152.062 531.481 154.016L512.133 183.676C510.54 183.539 508.948 183.398 507.355 183.25C484.306 181.115 462.081 177.361 442.002 172.324L442.169 172.281ZM487.046 150.082L446.088 135.761C451.89 134.143 457.473 132.525 462.744 130.967C467.721 133.083 475.971 136.47 486.08 140.161C491.011 141.959 495.849 143.641 500.593 145.207L487.046 150.082ZM275.326 58.9426L304.653 44.97L332.287 66.738L315.405 66.5897L275.278 58.9641L275.326 58.9426ZM230.942 52.7841L310.641 67.9271L285.772 81.0049L220.277 65.2334L224.463 62.3105C227.989 59.8488 230.075 57.1254 230.658 54.2213L230.942 52.7841ZM200.513 47.0004L225.016 51.6515L224.613 53.6604C224.081 56.3271 222.176 58.8188 218.945 61.0703L197.064 76.3427L177.308 69.8362L200.513 47.0004ZM169.537 73.6328L188.241 79.7968L137.092 96.2639C132.972 92.4266 129.231 89.0726 126.244 86.6107L169.537 73.6328ZM87.848 68.96L99.9352 64.4301C102.333 63.5321 105.771 63.0818 109.619 63.1869C113.468 63.2921 117.271 63.9042 120.309 64.9396L145.493 73.4873L118.739 81.5144C111.509 77.6532 99.8332 73.1555 87.848 68.96ZM166.513 196.435C155.148 193.281 143.305 190.212 131.087 187.268L135.361 180.06L175.193 188.994L167.201 196.63L166.513 196.435ZM225.835 215.257C209.709 209.362 191.826 203.616 172.512 198.121L180.765 190.226L239.47 203.392L225.835 215.257ZM244.554 198.968L137.642 175.002C103.863 167.428 77.7843 155.633 66.0939 142.645L39.1704 112.714L73.7458 102.347L101.57 130.659L75.2932 133.299C73.7827 133.453 73.145 134.041 73.8762 134.612C74.6074 135.184 76.4268 135.526 77.9317 135.375L103.668 132.787L114.633 143.944C123.101 152.573 135.772 160.716 152.3 168.188C168.828 175.66 188.457 182.107 210.65 187.354L247.804 196.136L244.554 198.968ZM283.681 203.409L283.375 203.454C276.083 204.501 267.447 204.102 259.693 202.376L250.094 200.219L255.408 195.594L213.323 185.647C169.922 175.387 136.9 160.457 120.34 143.608L108.253 131.285L78.4277 100.953L121.729 87.967C124.756 90.5204 128.485 93.899 132.564 97.7225L112.677 104.124C111.56 104.485 111.665 105.157 112.918 105.629C113.989 105.991 115.131 106.123 116.262 106.014C116.584 105.986 116.901 105.923 117.209 105.828L135.063 100.079C143.755 108.317 153.606 118.089 161.44 125.965L133.879 127.429C132.292 127.515 131.447 128.057 131.994 128.645C132.541 129.233 134.261 129.637 135.854 129.554L163.543 128.084C170.628 135.211 175.596 140.331 175.729 140.488L176.083 140.849L188.306 144.376C194.856 146.263 202.686 147.342 210.35 147.372C213.056 147.393 215.76 147.271 218.452 147.008C222.785 146.571 226.6 145.757 229.584 144.605L236.414 141.974L276.23 155.456C267.926 158.918 262.306 161.96 259.37 164.583C255.238 168.29 254.11 172.732 256.017 177.795C257.525 181.794 260.926 186.184 266.132 190.843C272.495 196.522 279.88 201.162 283.681 203.409ZM295.584 197.207C295.232 199.364 292.696 201.176 288.447 202.395C284.684 200.157 277.636 195.683 271.681 190.342C263.905 183.361 256.445 173.416 265.084 165.672C267.776 163.245 273.149 160.371 281.036 157.081L307.634 166.096C307.107 166.395 306.599 166.705 306.118 167.018C301.94 169.73 299.554 172.769 299.033 176.051L295.584 197.207ZM337.034 205.061L334.538 204.363C324.491 201.594 315.72 199.51 310.165 198.266L313.566 177.375C325.015 180.12 346.803 185.628 364.771 191.838C355.793 195.573 345.726 200.548 337.051 205.067L337.034 205.061ZM368.419 190.385C348.813 183.609 325.27 177.776 314.305 175.191C316.473 170.858 323.057 167.131 332.902 164.763C337.355 163.685 342.323 162.493 347.685 161.185L396.034 182.169C389.322 184.032 382.898 185.809 377.728 187.227C374.57 188.125 371.462 189.179 368.419 190.385ZM537.968 201.087L418.717 213.07C407.784 207.367 393.474 200.267 380.231 194.812C377.964 193.882 375.572 192.957 373.086 192.046C375.995 190.885 378.966 189.872 381.988 189.012C387.568 187.481 394.619 185.531 401.906 183.509C402.08 183.484 402.254 183.45 402.424 183.406C402.595 183.363 402.76 183.304 402.917 183.229C413.103 180.397 423.646 177.458 431.241 175.339C443.144 178.456 455.784 181.152 468.934 183.371L442.577 199.981C441.829 200.453 442.441 201.127 443.943 201.486C444.817 201.688 445.72 201.75 446.616 201.669C447.108 201.641 447.587 201.508 448.018 201.281L474.899 184.339C485.119 185.933 495.608 187.238 506.264 188.225C514.224 188.964 522.208 189.573 530.019 190.085L537.968 201.087ZM571.764 176.31C567.513 182.706 550.818 186.321 531.144 185.1C526.893 184.83 522.611 184.531 518.294 184.191L537.144 155.294C540.675 156.052 544.122 156.722 547.485 157.302C557.821 159.082 568.295 162.504 578.186 166.629L571.764 176.31ZM579.736 164.292C569.069 160.037 558.881 157.063 549.262 155.394C545.717 154.784 542.024 154.045 538.209 153.204C538.954 150.793 538.135 148.081 535.763 145.115C533.462 142.238 529.699 139.11 524.572 135.82C515.897 130.26 506.434 126.191 506.026 126.021C504.659 125.511 503.163 125.401 501.729 125.706C500.519 126.032 500.482 126.696 501.644 127.192C501.99 127.34 534.003 141.151 532.337 151.843C519.3 148.666 504.983 144.265 490.11 138.84C480.001 135.152 471.79 131.776 466.933 129.705H466.975C477.697 126.469 485.604 122.282 490.572 117.229C498.467 117.681 506.726 117.978 515.268 118.105H515.426C517.087 118.129 518.762 118.148 520.443 118.159C535.31 118.259 549.35 121.823 560.799 126.038L548.59 133.752C547.842 134.224 548.457 134.898 549.962 135.257C550.834 135.459 551.736 135.521 552.629 135.437C553.126 135.412 553.61 135.28 554.046 135.052L565.461 127.836C568.667 129.139 571.62 130.465 574.27 131.738C581.097 135.006 587.661 138.75 593.91 142.939L579.736 164.292ZM667.592 162.423L634.649 148.28C628.295 145.552 628.046 141.979 634.068 139.967C637.557 138.803 642.615 138.317 647.955 138.638C653.294 138.959 658.418 140.059 662.04 141.655L692.112 154.895L667.592 162.423ZM696.25 153.619L670.859 142.453L686.77 138.042C687.96 137.71 687.969 137.045 686.79 136.551C685.419 136.048 683.922 135.947 682.49 136.26L666.725 140.633L666.478 140.525C661.683 138.414 654.887 136.958 647.833 136.532C640.779 136.106 634.088 136.748 629.465 138.293C625.577 139.59 623.514 141.445 623.661 143.513C623.809 145.581 626.147 147.693 630.248 149.445L663.443 163.696L611.169 179.75L610.154 179.162C603.919 175.594 597.812 172.396 591.832 169.568L635.04 104.45C639.407 97.8654 629.78 90.2294 611.628 85.8826L556.517 72.6702C559.402 70.9121 564.563 68.1592 572.702 65.0447C577.781 66.3265 582.77 67.6315 587.669 68.96C611.192 75.3477 636.641 86.0388 663.114 100.554C653.195 103.153 649.99 108.169 656.21 113.068C663.661 118.938 681.958 122.522 697.65 121.297C703.199 124.914 708.772 128.678 714.371 132.59C718.61 135.56 722.861 138.615 727.124 141.758C727.88 142.319 728.635 142.88 729.391 143.44L696.25 153.619ZM675.913 102.784C676.686 102.706 677.477 102.646 678.271 102.603C688.473 102.064 699.968 104.429 704.76 108.203C708.728 111.331 706.965 114.529 701.056 116.333C698.966 116.939 696.818 117.343 694.643 117.539C693.793 117.625 692.942 117.687 692.078 117.73C681.918 118.226 670.539 115.87 665.792 112.119C661.859 109.02 663.556 105.855 669.332 104.029C671.474 103.397 673.68 102.98 675.913 102.784ZM648.66 87.131C639.163 82.6173 629.81 78.6202 620.603 75.14L663.522 70.8259L692.104 93.3408C677.511 92.0638 663.008 89.9904 648.666 87.131H648.66Z" fill="#BBB9B9"/>
</g>
<path d="M435.272 125.13C435.272 131.968 423.134 150 423.134 150C423.134 150 411 131.968 411 125.13C411 118.293 416.438 112.753 423.134 112.753C429.83 112.753 435.272 118.297 435.272 125.13Z" fill="#2B2E86"/>
<path d="M428.84 124.594C428.863 127.77 426.31 130.364 423.134 130.394C419.959 130.364 417.407 127.769 417.431 124.594C417.414 123.065 418.005 121.591 419.075 120.499C420.145 119.406 421.605 118.783 423.134 118.768C426.319 118.8 428.875 121.409 428.84 124.594Z" fill="#E92C24"/>
<path d="M902.427 82.1771C902.427 89.8267 888.846 110.013 888.846 110.013C888.846 110.013 875.262 89.8267 875.262 82.1771C875.262 74.5277 881.345 68.3283 888.846 68.3247C896.347 68.321 902.427 74.5422 902.427 82.1771Z" fill="#2B2E86"/>
<path d="M895.23 81.6913C895.252 83.4041 894.59 85.0548 893.392 86.2791C892.195 87.5035 890.559 88.2008 888.846 88.2169C887.133 88.2008 885.497 87.5035 884.3 86.2791C883.102 85.0548 882.44 83.4041 882.462 81.6913C882.427 78.1326 885.284 75.2197 888.842 75.1838C892.404 75.2157 895.264 78.1299 895.23 81.6913Z" fill="#E92C24"/>
<path d="M768.92 28.812C768.92 34.8411 758.214 50.749 758.214 50.749C758.214 50.749 747.508 34.8411 747.508 28.812C747.508 22.7831 752.301 17.8925 758.214 17.8925C764.127 17.8925 768.92 22.7795 768.92 28.812Z" fill="#2B2E86"/>
<path d="M763.246 28.3299C763.26 29.6779 762.738 30.9763 761.794 31.9387C760.85 32.901 759.562 33.4482 758.214 33.4597C756.866 33.4482 755.578 32.901 754.634 31.9387C753.69 30.9763 753.168 29.6779 753.182 28.3299C753.167 26.9813 753.689 25.6819 754.633 24.7188C755.577 23.7557 756.865 23.2079 758.214 23.1964C759.563 23.2078 760.851 23.7556 761.795 24.7188C762.74 25.6819 763.262 26.9813 763.246 28.3299Z" fill="#E92C24"/>
<path d="M630.776 60.8492C630.776 68.1434 617.819 87.4012 617.819 87.4012C617.819 87.4012 604.862 68.1434 604.862 60.8492C604.862 53.555 610.662 47.6348 617.819 47.6348C624.975 47.6348 630.776 53.5369 630.776 60.8492Z" fill="#2B2E86"/>
<path d="M623.909 60.2655C623.936 63.6595 621.213 66.436 617.819 66.4758C614.425 66.436 611.702 63.6595 611.728 60.2655C611.702 56.8715 614.425 54.0952 617.819 54.0553C621.213 54.0952 623.936 56.8715 623.909 60.2655Z" fill="#E92C24"/>
<path d="M827.937 162.834C827.937 170.915 813.584 192.243 813.584 192.243C813.584 192.243 799.235 170.915 799.235 162.834C799.235 154.753 805.659 148.198 813.584 148.198C821.509 148.198 827.937 154.749 827.937 162.834Z" fill="#2B2E86"/>
<path d="M820.323 162.189C820.344 163.997 819.644 165.74 818.378 167.032C817.113 168.324 815.385 169.06 813.576 169.077C811.769 169.059 810.042 168.322 808.777 167.03C807.512 165.738 806.813 163.996 806.833 162.189C806.793 158.424 809.812 155.34 813.576 155.3C817.342 155.338 820.364 158.423 820.323 162.189Z" fill="#E92C24"/>
<path d="M424.624 105.974C428.144 97.1897 450.364 44.2052 505.933 25.7014C514.663 22.8012 559.342 7.91912 597.546 30.777C603.463 34.324 608.928 38.5762 613.82 43.4402" stroke="#E92C24" stroke-width="2.7" stroke-dasharray="10.3 10.3 10.3"/>
<path d="M661.171 158.309C659.173 123.314 655.309 80.6545 645.495 56.0746C640.637 43.9008 632.443 35.8416 624.627 46.4385" stroke="#E92C24" stroke-width="2.66" stroke-dasharray="11.09 11.09 11.09"/>
<path d="M813.569 145.853C794.38 108.747 773.277 82.518 757.638 65.5804C736.61 42.7951 723.349 34.5365 713.803 29.6894C699.585 22.4387 673.493 9.19168 647.173 19.6472C631.504 25.8683 622.267 37.9117 617.808 44.8506" stroke="#E92C24" stroke-width="2.66" stroke-dasharray="11.09 11.09 11.09"/>
<path d="M429.801 110.118C443.447 101.497 478.533 81.9415 526.134 83.7071C532.569 83.9427 564.077 85.4908 598.536 103.331C610.8 109.683 625.077 117.26 638.197 133.124C647.784 144.793 654.779 158.367 658.72 172.945" stroke="#E92C24" stroke-width="2.66" stroke-dasharray="10.14 10.14 10.14"/>
<path d="M667.011 172.289C671.579 116.114 686.088 57.6517 714.101 20.7095C723.951 7.72338 737.038 -2.57985 747.965 4.09081C751.406 6.19353 755.48 10.7433 758.729 15.6919" stroke="#E92C24" stroke-width="2.91" stroke-dasharray="12.12 12.12 12.12"/>
<path d="M675.542 172.289C683.793 152.987 695.974 135.47 712.513 123.76C723.291 116.147 735.171 117.887 740.678 117.832C773.168 117.521 796.476 138.294 803.73 145.338" stroke="#E92C24" stroke-width="2.66" stroke-dasharray="11.09 11.09 11.09"/>
<path d="M676.035 156.609C679.094 146.966 702.655 75.7168 759.095 47.1454C789.508 31.7486 819.964 32.2815 819.964 32.2815C839.904 32.644 851.371 38.0168 853.898 39.2421C869.331 46.7249 878.188 58.2354 882.32 64.4746" stroke="#E92C24" stroke-width="2.66" stroke-dasharray="11.09 11.09 11.09"/>
<path d="M683.108 192.942C683.108 201.712 667.519 224.845 667.519 224.845C667.519 224.845 651.948 201.705 651.948 192.942C651.948 184.18 658.919 177.063 667.519 177.063C676.118 177.063 683.108 184.173 683.108 192.942Z" fill="#2B2E86"/>
<path d="M674.853 192.243C674.893 196.325 671.616 199.667 667.533 199.707C663.45 199.667 660.173 196.325 660.214 192.243C660.171 188.159 663.449 184.814 667.533 184.774C671.617 184.814 674.895 188.159 674.853 192.243Z" fill="#E92C24"/>
</svg>
