<svg width="570" height="206" viewBox="0 0 570 206" fill="none" xmlns="http://www.w3.org/2000/svg">
<g opacity="0.24">
<path d="M501.061 107.129C511.095 108.567 526.253 110.25 541.468 110.109C549.563 110.032 558.131 109.634 566.279 109.099C565.445 108.168 564.535 107.24 563.548 106.314C555.672 106.836 547.439 107.224 539.765 107.296C539.191 107.296 538.616 107.296 538.042 107.296C535.309 104.635 526.89 96.386 518.408 87.4965L527.673 86.5649C527.975 86.5419 528.271 86.4742 528.55 86.3629C529.007 86.1609 529.109 85.8698 528.739 85.5809C528.193 85.1505 526.828 84.8959 525.7 85.0092L516.886 85.8942C515.216 84.1304 513.556 82.3542 511.946 80.6027C509.918 79.9722 507.851 79.3546 505.748 78.7498C507.982 81.225 510.36 83.7828 512.755 86.3102L499.961 87.5955C494.907 83.7019 483.57 81.0071 472.434 80.9888L464.543 76.0669C470.276 75.0204 476.674 74.0243 483.773 73.1332C482.059 72.7424 480.326 72.3601 478.573 71.9856C472.838 72.7455 467.352 73.6008 462.114 74.5516L450.411 67.2581L405.122 76.4143C403.016 75.9564 400.882 75.4984 398.722 75.0405C406.418 73.4847 413.861 71.7775 421.002 69.9291C427.08 68.3545 432.929 66.6813 438.551 64.9103C435.531 64.4764 432.478 64.0576 429.392 63.6536C418.603 66.9326 405.876 70.1876 391.065 73.0848C390.809 73.1296 390.558 73.1974 390.315 73.287C387.342 72.6823 384.33 72.0758 381.277 71.4685C380.224 71.261 379.162 71.0544 378.092 70.8483L377.803 58.5499C376.29 58.4421 374.772 58.3406 373.248 58.245L373.522 69.9631C366.434 68.6161 359.136 67.2795 351.629 65.9529C344.121 64.626 336.441 63.3247 328.589 62.0492L322.218 56.2406C318.537 56.1868 314.846 56.1511 311.146 56.1335L315.312 59.932C306.453 58.5499 298.146 57.3053 290.647 56.2347C280.111 56.3842 269.516 56.6879 258.865 57.1458L302.609 67.6256L322.551 87.1284L300.968 86.9266C298.489 83.1368 295.389 79.7489 291.786 76.8912C290.65 75.9961 289.475 75.1295 288.275 74.2909C288.246 74.2668 288.21 74.2426 288.174 74.2185C280.149 68.6239 270.973 64.2899 264.305 61.5099C259.899 59.6735 256.081 58.2933 253.409 57.3842C251.672 57.4691 249.933 57.558 248.192 57.6509C250.402 58.356 255.276 59.9863 261.175 62.4493C267.021 64.892 274.853 68.5693 282.045 73.2727L230.702 67.9247L220.036 59.5219C218.639 59.635 217.241 59.7493 215.844 59.8652L226.598 68.3348L203.112 79.5277C202.949 79.585 202.821 79.7067 202.761 79.8611L174.017 74.4061L176.098 64.0253C174.506 64.2234 172.923 64.4255 171.352 64.6315L169.562 73.5555L152.325 70.3008L154.935 67.7329C155.171 67.5354 155.265 67.2255 155.175 66.9387C150.414 67.658 145.746 68.4077 141.17 69.1875L124.299 85.7872L99.6045 77.6609C96.8171 78.3344 94.0826 79.0198 91.4014 79.7177L118.929 88.7831L112.809 90.6177L93.6119 84.1021C90.3757 83.0029 86.341 82.3422 82.2468 82.2391H82.1258C64.354 87.2721 49.1538 92.8403 36.8862 98.7701L41.9827 97.3562L63.6426 89.2358C72.691 92.3938 81.4208 95.7617 86.4429 98.5298L54.3607 108.145L36.194 99.1074C35.3332 99.5266 34.4902 99.9465 33.6649 100.368L51.2009 109.092L23.903 117.279L14.1135 112.834C12.6073 114.094 11.2255 115.36 9.96842 116.635L18.9637 120.71L39.8061 143.884C44.6541 149.274 52.3349 154.367 62.6255 159.023C72.5657 163.52 84.4065 167.361 97.8314 170.45L94.6588 175.794C89.7917 174.638 84.8559 173.509 79.8515 172.406C57.735 167.53 40.5174 164.547 34.8031 163.593C23.6418 156.065 13.6634 148.462 11.3679 144.007C9.79429 140.952 6.2926 137.34 0.913705 133.222C0.772332 134.468 0.754571 135.724 0.860635 136.974C3.59783 139.398 5.74473 141.798 6.88293 143.989C8.53928 147.205 13.9522 152.127 23.0217 158.681L16.39 159.148C17.0978 159.668 17.8234 160.183 18.5666 160.693L25.1877 160.227C26.7082 161.304 28.3221 162.419 30.0294 163.57C30.0086 163.589 29.9894 163.608 29.972 163.629C29.6513 164.033 30.3755 164.508 31.5923 164.702L31.7367 164.724C34.1348 166.328 36.6972 168.007 39.4239 169.761C40.5769 170.502 41.73 171.234 42.8682 171.955L39.6107 171.923C40.9018 172.475 42.2191 173.021 43.5626 173.561L45.4568 173.581C46.4888 174.226 47.5081 174.861 48.5104 175.477C52.0595 176.802 55.775 178.087 59.6568 179.332C53.5283 175.642 45.701 170.809 38.1179 165.795C45.994 167.173 60.3979 169.836 77.9891 173.711C82.835 174.78 88.1205 175.986 93.7309 177.325L87.9697 187.08C89.3713 187.407 90.7869 187.729 92.2168 188.045L97.9609 178.368C106.292 180.4 115.232 182.71 124.433 185.282L116.531 192.846C117.975 193.099 119.43 193.347 120.895 193.589L128.404 186.405C141.582 190.171 155.181 194.47 168.177 199.267L167.589 199.778C169.815 200.004 172.051 200.222 174.3 200.432C175.032 200.158 174.922 199.679 174.028 199.339L173.531 199.156L184.242 189.836L190.712 191.286C193.229 191.844 195.774 192.28 198.338 192.591L209.35 203.041C210.956 203.133 212.564 203.219 214.175 203.3L203.383 193.06C207.624 193.342 211.882 193.281 216.112 192.878C216.972 192.791 217.816 192.688 218.643 192.571C225.863 191.535 230.832 189.387 232.495 186.68C236.553 187.609 242.422 189.027 248.975 190.833C249.604 191.008 250.245 191.187 250.897 191.371C243.363 195.353 237.687 198.618 237.152 198.927C236.555 199.271 236.969 199.778 238.077 200.059C238.752 200.224 239.451 200.276 240.144 200.213C240.498 200.19 240.845 200.098 241.161 199.944C241.292 199.867 247.049 196.553 254.751 192.484C265.065 195.531 277.288 199.722 285.912 204.514L286.124 204.637C286.774 205.001 287.989 205.185 288.972 205.086C289.085 205.073 289.184 205.059 289.295 205.041C289.949 204.926 290.289 204.694 290.265 204.435C290.252 204.286 290.119 204.126 289.853 203.979C280.769 198.883 267.856 194.458 257.051 191.272C263.475 187.922 270.911 184.245 277.484 181.501C279.183 182.124 280.799 182.752 282.334 183.385C291.968 187.351 302.393 192.515 310.443 196.707C310.082 196.909 310.018 197.172 310.364 197.438C310.842 197.814 311.946 198.057 312.974 198.044C317.349 200.354 320.797 202.251 322.696 203.298C324.194 203.222 325.691 203.145 327.187 203.065C325.609 202.18 321.989 200.172 317.185 197.63L404.923 188.815L409.576 195.246C410.939 195.056 412.294 194.864 413.642 194.668L409.034 188.298C409.514 188.096 409.624 187.801 409.246 187.504C408.913 187.278 408.532 187.123 408.129 187.052L402.43 179.172C407.177 179.332 411.931 179.184 416.658 178.727C419.364 178.467 422.053 178.062 424.712 177.515L453.329 187.872C454.557 187.622 455.778 187.373 456.99 187.122L428.146 176.683C433.915 175.066 437.982 172.799 439.74 170.147L442.855 165.451C457.419 172.59 469.089 180.772 472.933 183.572C474.112 183.292 475.283 183.009 476.445 182.724C473.723 180.758 468.283 176.964 461.188 172.727L500.913 160.526L520.933 169.098C521.875 168.737 522.804 168.374 523.721 168.009L504.021 159.552L522.341 153.925L538.983 161.253C539.815 160.849 540.635 160.427 541.436 160.01L525.448 152.972L549.382 145.619C551.779 147.421 554.1 149.195 556.345 150.941C557.773 149.896 559.118 148.844 560.38 147.785C557.877 145.868 555.282 143.92 552.595 141.94C549.575 139.718 546.558 137.548 543.544 135.432C544.156 134.129 546.417 129.941 552.138 124.958C555.88 121.698 561.59 117.707 569.976 113.976C569.182 112.7 568.298 111.478 567.33 110.317C564.782 111.323 562.357 112.391 560.055 113.523C554.064 116.463 548.883 119.823 544.653 123.504C541.185 126.534 538.941 129.25 537.537 131.286C535.075 129.612 532.617 127.976 530.162 126.377C538.034 124.476 540.69 120.619 535.91 116.853C530.217 112.367 516.075 109.664 504.168 110.745L503.344 110.293C500.857 108.935 498.379 107.621 495.912 106.351C497.519 106.605 499.239 106.87 501.061 107.129ZM501.945 89.1471L514.282 87.9086C522.394 96.3943 530.408 104.274 533.443 107.236C530.385 107.159 527.35 107.014 524.378 106.819L501.945 89.1471ZM470.304 82.6453L471.918 82.6089C481.474 82.3928 491.495 84.6576 495.856 88.0054L461.944 91.4137C456.214 89.3489 450.582 87.5651 445.045 86.0618C441.775 85.1729 438.397 84.2852 434.913 83.399C441.097 81.3301 449.602 78.954 460.865 76.7598L470.304 82.6453ZM449.213 69.4926L458.438 75.2466C448.066 77.267 438.776 79.657 430.802 82.3684C424.17 80.7211 417.189 79.082 409.86 77.4509L449.213 69.4926ZM378.166 73.8323C394.061 76.9515 410.295 80.4349 425.685 84.2231C419.605 86.5712 415.757 88.63 413.561 89.9755L378.349 81.5421L378.166 73.8323ZM422.085 121.172L428.243 113.76L440.946 116.576L452.56 103.552L454.063 103.912C463.177 106.094 468.011 109.929 465.817 113.232L455.155 129.296L422.085 121.172ZM454.15 130.82L447.105 141.419C443.05 138.857 438.839 136.527 434.493 134.442C431.452 132.981 428.387 131.658 425.298 130.472L425.145 130.416C422.358 129.349 419.565 128.401 416.768 127.573L420.858 122.645L454.15 130.82ZM438.041 114.2L429.458 112.299L439.345 100.378L448.421 102.552L438.041 114.2ZM412.714 126.468C405.259 124.54 397.577 123.522 389.852 123.437H389.427L394.694 115.487L404.462 116.97C404.968 117.047 405.483 117.062 405.993 117.014C406.583 116.956 407.055 116.8 407.218 116.574C407.518 116.17 406.772 115.693 405.553 115.507L395.673 114.008L399.907 107.62L381.326 86.5125L435.179 99.3944L412.714 126.468ZM332.445 65.5831C345.186 67.7043 359.201 70.1735 373.599 72.9515L373.775 80.4553L339.843 72.321L332.445 65.5831ZM359.564 90.3026L346.146 78.0709L375.616 85.1305L395.195 107.373L384.603 123.36C379.462 123.267 374.431 123.089 369.575 122.829C370.03 122.262 370.446 121.668 370.821 121.051C373.333 116.895 373.614 112.097 371.654 106.791C368.424 98.0287 360.242 90.8826 359.564 90.3026ZM299.783 60.4313C302.473 60.8351 305.233 61.2527 308.065 61.6837C310.896 62.1146 313.785 62.5646 316.733 63.0334L319.115 63.4111L324.993 68.7671L302.909 63.4778L299.783 60.4313ZM275.861 56.9963C281.37 57.754 287.615 58.6349 294.432 59.635L296.88 62.0291L275.861 56.9963ZM308.636 69.0885L331.281 74.5112L345.366 87.3488L327.14 87.1891L308.636 69.0885ZM345.022 104.674L328.797 88.8055L347.144 88.9692L349.48 91.0966L349.537 91.1472C349.62 91.2158 357.721 98.1702 360.821 106.569C363.067 112.642 362.229 117.805 358.309 122.057C354.275 121.714 350.429 121.31 346.785 120.845L346.258 120.776C348.46 119.695 349.898 118.352 350.544 116.748C351.189 115.144 351.036 113.248 350.074 111.161C348.509 107.761 345.354 104.961 345.022 104.672V104.674ZM324.212 88.7651L340.775 104.973L340.816 105.011C340.941 105.118 352.82 115.497 341.453 120.103C332.077 118.689 324.499 116.851 319.33 114.755C313.441 112.371 310.53 105.997 307.438 99.2491C305.869 95.8143 304.202 92.1775 301.996 88.5692L324.212 88.7651ZM233.036 69.7874L284.804 75.1801C285.787 75.8792 286.753 76.594 287.689 77.3357C291.13 80.0687 294.093 83.3041 296.468 86.9205L254.312 86.5468L233.036 69.7874ZM264.129 94.2809L256.367 88.1674L297.504 88.5286C299.713 92.1169 301.386 95.7697 302.955 99.2067C306.302 106.53 309.192 112.857 316.149 115.675C322.239 118.142 330.988 120.198 341.646 121.75C341.797 121.778 341.95 121.801 342.107 121.817C346.683 122.473 351.601 123.029 356.808 123.504C353.572 126.32 348.837 128.671 342.604 130.557C335.774 132.62 328.1 134.8 320.035 137.022L296.039 126.856L294.408 127.248C294.23 127.29 279.314 130.884 261.158 135.862C251.465 131.29 241.285 126.845 230.62 122.528L258.826 111.656C259.862 111.26 260.874 110.813 261.861 110.317L276.04 113.733C276.698 113.886 277.378 113.934 278.053 113.872C278.42 113.852 278.778 113.753 279.1 113.584C279.665 113.232 279.212 112.727 278.089 112.456L264.042 109.074C266.522 107.458 268.108 105.656 268.699 103.714C269.642 100.631 268.06 97.374 264.131 94.2789L264.129 94.2809ZM169.316 130.711C168.375 130.357 166.937 130.288 166.098 130.559L151.429 135.276L129.701 134.448C123.271 127.939 113.503 118.16 105.259 110.39L122.39 104.874L166.661 123.704C167.495 124.012 168.394 124.128 169.284 124.041C169.485 124.022 169.685 123.987 169.88 123.936C170.785 123.694 170.811 123.194 169.938 122.823L156.923 117.287L180.948 109.224C194.794 113.866 208.023 118.715 220.635 123.77L169.076 143.641C163.13 145.934 152.44 145.864 144.216 143.502L136.359 141.235C135.671 140.526 133.857 138.667 131.326 136.097L153.623 136.948L169.503 131.838C170.331 131.569 170.25 131.064 169.316 130.711ZM218.864 98.1823L238.201 88.0138L251.689 88.1328L260.026 94.699C266 99.4045 265.855 104.296 259.992 108.086L218.864 98.1823ZM257.792 109.325C257.005 109.715 256.148 110.089 255.221 110.446L227.332 121.194C223.555 119.69 219.723 118.201 215.836 116.728L243.354 105.848L257.792 109.325ZM239.22 104.849L212.425 115.436C206.365 113.175 200.174 110.957 193.853 108.783L216.326 99.4893L216.39 99.4629L216.556 99.3761L239.22 104.849ZM190.279 107.563C187.986 106.785 185.677 106.013 183.354 105.248L172.074 101.534L191.553 93.3656L212.466 98.4001L190.279 107.563ZM168.445 100.338L152.017 94.9272L163.822 86.6902L187.427 92.3734L168.445 100.338ZM176.748 107.83L177.328 108.031L153.754 115.938L125.444 103.896L145.358 97.485L176.748 107.83ZM223.914 125.096C234.191 129.278 244.014 133.585 253.382 138.014C252.193 138.35 250.993 138.691 249.791 139.037C232.879 143.886 219.725 148.168 210.329 151.885L180.575 141.801L223.914 125.096ZM253.021 140.364C254.129 140.045 255.233 139.73 256.333 139.421C260.722 141.528 264.999 143.662 269.164 145.819L274.876 148.779C262.672 151.836 251.462 154.563 242.851 156.634C239.241 157.499 236.134 158.542 233.523 159.746L213.935 153.107C223.221 149.434 236.36 145.142 253.027 140.364H253.021ZM281.557 152.238L282.461 152.707C292.83 158.077 305.506 162.835 319.712 166.783C314.431 168.256 307.476 170.195 300.626 172.099L264.56 156.444C269.858 155.158 275.587 153.743 281.563 152.238H281.557ZM264.112 137.255C278.83 133.214 291.45 130.08 295.805 129.014L316.773 137.903C305.731 140.899 294.096 143.924 282.962 146.745L277.832 144.09C273.388 141.783 268.817 139.504 264.118 137.255H264.112ZM291.132 150.973L289.645 150.201C299.023 147.827 308.78 145.306 318.262 142.772L348.841 153.143L328.521 164.318L327.69 164.55C313.705 160.798 301.235 156.202 291.147 150.973H291.132ZM331.967 165.587L332.179 165.524L343.57 159.261L362.958 165.053C363.689 165.258 364.456 165.327 365.215 165.255C365.525 165.235 365.83 165.167 366.118 165.053C366.816 164.736 366.542 164.227 365.493 163.914L345.81 158.035L352.563 154.319L371.537 159.924C372.265 160.127 373.027 160.195 373.781 160.125C374.096 160.101 374.404 160.028 374.695 159.909C375.387 159.59 375.096 159.083 374.057 158.772L353.122 152.589L321.566 141.881C324.989 140.96 328.361 140.039 331.657 139.126L366.245 151.218L379.411 146.482C386.195 148.63 392.687 150.436 398.888 151.901L384.391 174.125C383.197 174.023 382.004 173.916 380.81 173.806C363.54 172.206 346.887 169.393 331.842 165.619L331.967 165.587ZM365.593 148.953L334.904 138.223C339.251 137.01 343.434 135.798 347.384 134.63C351.113 136.216 357.294 138.754 364.869 141.52C368.564 142.867 372.189 144.127 375.743 145.3L365.593 148.953ZM206.953 80.6632L228.927 70.1937L249.634 86.5043L236.984 86.3932L206.917 80.6793L206.953 80.6632ZM173.696 76.0486L233.414 87.3953L214.78 97.1943L165.706 85.3768L168.842 83.1869C171.484 81.3422 173.047 79.3015 173.484 77.1255L173.696 76.0486ZM150.896 71.7151L169.256 75.1998L168.955 76.7051C168.555 78.7034 167.128 80.5703 164.708 82.2573L148.312 93.701L133.509 88.8256L150.896 71.7151ZM127.686 91.6704L141.701 96.2891L103.376 108.628C100.288 105.752 97.4853 103.239 95.2471 101.395L127.686 91.6704ZM66.4776 88.1691L75.5344 84.775C77.3309 84.1021 79.9067 83.7645 82.7904 83.8436C85.6742 83.9222 88.524 84.3809 90.8004 85.1567L109.67 91.5614L89.624 97.576C84.2068 94.6829 75.4579 91.3127 66.4776 88.1691ZM125.42 183.686C116.905 181.322 108.031 179.022 98.8762 176.816L102.078 171.416L131.925 178.109L125.936 183.831L125.42 183.686ZM169.87 197.788C157.787 193.371 144.388 189.066 129.916 184.948L136.099 179.033L180.086 188.898L169.87 197.788ZM183.896 185.583L103.788 167.625C78.4776 161.95 58.9369 153.113 50.1774 143.38L30.0039 120.954L55.9109 113.186L76.7596 134.4L57.0703 136.378C55.9385 136.493 55.4607 136.933 56.0086 137.362C56.5564 137.79 57.9197 138.047 59.0473 137.933L78.331 135.994L86.547 144.354C92.8921 150.82 102.386 156.922 114.771 162.52C127.155 168.119 141.863 172.949 158.492 176.881L186.331 183.461L183.896 185.583ZM213.213 188.911L212.984 188.944C207.52 189.729 201.05 189.429 195.24 188.137L188.047 186.52L192.029 183.055L160.495 175.602C127.975 167.914 103.231 156.727 90.8238 144.102L81.7669 134.869L59.4189 112.141L91.8643 102.411C94.1322 104.324 96.9268 106.856 99.9825 109.721L85.0817 114.517C84.2451 114.788 84.3236 115.291 85.2622 115.645C86.0647 115.916 86.9206 116.015 87.768 115.933C88.0091 115.912 88.247 115.866 88.4772 115.794L101.855 111.487C108.368 117.659 115.75 124.981 121.619 130.882L100.968 131.979C99.7787 132.044 99.1458 132.45 99.5557 132.891C99.9656 133.331 101.255 133.634 102.448 133.572L123.195 132.47C128.504 137.81 132.226 141.647 132.326 141.764L132.591 142.035L141.75 144.678C146.658 146.092 152.525 146.9 158.267 146.922C160.294 146.938 162.321 146.847 164.338 146.649C167.585 146.322 170.443 145.712 172.679 144.849L177.797 142.878L207.63 152.98C201.408 155.573 197.198 157.853 194.998 159.819C191.901 162.597 191.056 165.924 192.485 169.719C193.615 172.715 196.163 176.004 200.064 179.495C204.832 183.75 210.365 187.227 213.213 188.911ZM222.132 184.264C221.869 185.88 219.968 187.237 216.785 188.151C213.965 186.474 208.684 183.122 204.222 179.119C198.395 173.889 192.806 166.437 199.279 160.635C201.296 158.816 205.322 156.663 211.232 154.198L231.161 160.952C230.766 161.176 230.386 161.409 230.025 161.643C226.895 163.676 225.107 165.953 224.716 168.411L222.132 184.264ZM253.191 190.149L251.32 189.625C243.792 187.551 237.22 185.989 233.057 185.057L235.606 169.403C244.185 171.46 260.51 175.588 273.974 180.241C267.246 183.039 259.703 186.766 253.203 190.153L253.191 190.149ZM276.707 179.152C262.016 174.075 244.376 169.704 236.16 167.767C237.784 164.52 242.717 161.728 250.095 159.954C253.431 159.146 257.153 158.253 261.171 157.273L297.398 172.995C292.37 174.392 287.556 175.723 283.682 176.786C281.315 177.458 278.987 178.248 276.707 179.152ZM403.749 187.171L314.395 196.149C306.202 191.876 295.481 186.557 285.557 182.469C283.859 181.772 282.066 181.08 280.204 180.396C282.383 179.526 284.61 178.768 286.874 178.123C291.055 176.976 296.339 175.515 301.798 174C301.929 173.981 302.059 173.955 302.187 173.923C302.314 173.891 302.438 173.846 302.556 173.789C310.188 171.668 318.088 169.466 323.779 167.878C332.698 170.214 342.168 172.234 352.022 173.897L332.273 186.342C331.712 186.696 332.171 187.201 333.296 187.469C333.951 187.621 334.628 187.668 335.299 187.607C335.668 187.586 336.027 187.487 336.35 187.316L356.492 174.622C364.149 175.816 372.008 176.794 379.993 177.533C385.958 178.087 391.94 178.544 397.792 178.927L403.749 187.171ZM429.072 168.605C425.886 173.398 413.377 176.107 398.635 175.192C395.45 174.99 392.241 174.766 389.007 174.511L403.131 152.858C405.777 153.427 408.359 153.928 410.879 154.363C418.624 155.697 426.472 158.261 433.883 161.352L429.072 168.605ZM435.045 159.6C427.052 156.412 419.418 154.184 412.211 152.933C409.554 152.476 406.787 151.923 403.929 151.292C404.487 149.486 403.874 147.454 402.096 145.231C400.372 143.076 397.552 140.732 393.711 138.267C387.211 134.101 380.12 131.052 379.814 130.925C378.79 130.542 377.669 130.46 376.595 130.688C375.688 130.933 375.661 131.43 376.531 131.802C376.79 131.913 400.778 142.261 399.529 150.272C389.761 147.892 379.033 144.595 367.889 140.53C360.314 137.766 354.162 135.236 350.522 133.685H350.554C358.588 131.26 364.512 128.122 368.235 124.336C374.151 124.676 380.339 124.898 386.739 124.993H386.858C388.102 125.011 389.357 125.025 390.617 125.033C401.757 125.108 412.277 127.779 420.856 130.937L411.708 136.717C411.147 137.071 411.608 137.576 412.735 137.844C413.389 137.997 414.064 138.043 414.734 137.98C415.106 137.961 415.469 137.862 415.795 137.691L424.349 132.285C426.751 133.26 428.963 134.254 430.949 135.208C436.065 137.657 440.983 140.463 445.665 143.601L435.045 159.6ZM500.874 158.2L476.19 147.603C471.43 145.558 471.243 142.881 475.755 141.375C478.369 140.502 482.16 140.138 486.16 140.378C490.161 140.619 494 141.443 496.714 142.639L519.247 152.559L500.874 158.2ZM522.347 151.604L503.323 143.237L515.244 139.932C516.136 139.683 516.143 139.184 515.259 138.814C514.232 138.438 513.11 138.362 512.038 138.596L500.225 141.873L500.04 141.792C496.447 140.211 491.355 139.119 486.069 138.8C480.784 138.481 475.77 138.962 472.306 140.12C469.393 141.091 467.847 142.481 467.958 144.031C468.068 145.581 469.82 147.163 472.893 148.476L497.765 159.154L458.597 171.183L457.837 170.743C453.165 168.069 448.589 165.673 444.108 163.554L476.484 114.762C479.756 109.828 472.542 104.106 458.941 100.849L417.647 90.949C419.809 89.6318 423.676 87.5691 429.774 85.2355C433.58 86.1959 437.318 87.1736 440.989 88.1691C458.614 92.9553 477.683 100.966 497.519 111.842C490.087 113.79 487.685 117.548 492.346 121.219C497.929 125.617 511.639 128.302 523.396 127.385C527.554 130.095 531.731 132.916 535.925 135.847C539.102 138.072 542.287 140.361 545.481 142.716C546.047 143.136 546.614 143.557 547.18 143.976L522.347 151.604ZM507.109 113.513C507.689 113.455 508.281 113.41 508.876 113.378C516.52 112.973 525.133 114.745 528.724 117.574C531.697 119.918 530.376 122.314 525.949 123.665C524.383 124.119 522.773 124.422 521.143 124.568C520.506 124.633 519.869 124.68 519.222 124.712C511.609 125.084 503.083 123.318 499.526 120.508C496.578 118.186 497.85 115.814 502.178 114.446C503.783 113.973 505.436 113.66 507.109 113.513ZM486.689 101.784C479.573 98.4025 472.565 95.4072 465.666 92.7998L497.825 89.5671L519.241 106.438C508.307 105.481 497.44 103.927 486.693 101.784H486.689Z" fill="#BBB9B9"/>
</g>
<path d="M140.597 94.1282C140.597 99.2514 131.503 112.763 131.503 112.763C131.503 112.763 122.411 99.2514 122.411 94.1282C122.411 89.005 126.485 84.8542 131.503 84.8542C136.52 84.8542 140.597 89.0077 140.597 94.1282Z" fill="#2B2E86"/>
<path d="M135.778 93.7262C135.795 96.1058 133.882 98.0501 131.503 98.0725C129.124 98.0501 127.212 96.1054 127.23 93.7262C127.217 92.5804 127.66 91.4765 128.461 90.6577C129.263 89.8389 130.357 89.3723 131.503 89.3608C133.889 89.3846 135.804 91.3397 135.778 93.7262Z" fill="#E92C24"/>
<path d="M490.632 61.9438C490.632 67.6755 480.456 82.8005 480.456 82.8005C480.456 82.8005 470.278 67.6755 470.278 61.9438C470.278 56.212 474.836 51.5669 480.456 51.5643C486.077 51.5614 490.632 56.223 490.632 61.9438Z" fill="#2B2E86"/>
<path d="M485.24 61.5797C485.256 62.8632 484.761 64.1 483.863 65.0173C482.966 65.9348 481.74 66.4573 480.457 66.4694C479.173 66.4573 477.947 65.9348 477.05 65.0173C476.152 64.1 475.657 62.8632 475.673 61.5797C475.647 58.9132 477.787 56.7306 480.454 56.7037C483.123 56.7277 485.266 58.9112 485.24 61.5797Z" fill="#E92C24"/>
<path d="M390.596 21.9576C390.596 26.4752 382.575 38.395 382.575 38.395C382.575 38.395 374.553 26.4752 374.553 21.9576C374.553 17.4404 378.144 13.7759 382.575 13.7759C387.005 13.7759 390.596 17.4376 390.596 21.9576Z" fill="#2B2E86"/>
<path d="M386.345 21.5965C386.356 22.6066 385.965 23.5794 385.257 24.3005C384.55 25.0216 383.585 25.4316 382.575 25.4401C381.565 25.4316 380.6 25.0216 379.892 24.3005C379.185 23.5794 378.794 22.6066 378.804 21.5965C378.793 20.5861 379.184 19.6124 379.891 18.8907C380.599 18.1691 381.564 17.7586 382.575 17.75C383.585 17.7586 384.551 18.169 385.258 18.8907C385.966 19.6124 386.357 20.5861 386.345 21.5965Z" fill="#E92C24"/>
<path d="M287.087 45.9629C287.087 51.4283 277.378 65.8582 277.378 65.8582C277.378 65.8582 267.67 51.4283 267.67 45.9629C267.67 40.4976 272.016 36.0615 277.378 36.0615C282.741 36.0615 287.087 40.4839 287.087 45.9629Z" fill="#2B2E86"/>
<path d="M281.942 45.5256C281.961 48.0687 279.921 50.1491 277.378 50.179C274.835 50.1491 272.795 48.0687 272.814 45.5256C272.795 42.9825 274.835 40.9023 277.378 40.8724C279.921 40.9023 281.961 42.9826 281.942 45.5256Z" fill="#E92C24"/>
<path d="M434.818 122.379C434.818 128.434 424.063 144.415 424.063 144.415C424.063 144.415 413.312 128.434 413.312 122.379C413.312 116.324 418.125 111.413 424.063 111.413C430.001 111.413 434.818 116.321 434.818 122.379Z" fill="#2B2E86"/>
<path d="M429.113 121.896C429.128 123.251 428.604 124.556 427.656 125.524C426.707 126.493 425.413 127.044 424.058 127.057C422.703 127.043 421.409 126.492 420.462 125.523C419.514 124.555 418.99 123.25 419.005 121.896C418.975 119.075 421.237 116.764 424.058 116.734C426.879 116.763 429.143 119.074 429.113 121.896Z" fill="#E92C24"/>
<path d="M132.619 79.7744C135.257 73.1924 151.906 33.4918 193.543 19.627C200.085 17.4538 233.562 6.30286 262.188 23.4301C266.621 26.0877 270.716 29.2739 274.382 32.9183" stroke="#E92C24" stroke-width="2.7" stroke-dasharray="10.3 10.3 10.3"/>
<path d="M309.861 118.989C308.364 92.7673 305.469 60.803 298.115 42.3855C294.475 33.2637 288.336 27.2251 282.479 35.1652" stroke="#E92C24" stroke-width="2.66" stroke-dasharray="11.09 11.09 11.09"/>
<path d="M424.052 109.655C409.674 81.8525 393.862 62.199 382.143 49.5079C366.388 32.4349 356.451 26.2469 349.298 22.615C338.645 17.1821 319.094 7.25635 299.373 15.0906C287.633 19.7519 280.711 28.7759 277.37 33.9753" stroke="#E92C24" stroke-width="2.66" stroke-dasharray="11.09 11.09 11.09"/>
<path d="M136.498 82.8794C146.723 76.4197 173.012 61.7672 208.679 63.0901C213.501 63.2666 237.11 64.4266 262.929 77.7943C272.119 82.5534 282.816 88.2308 292.647 100.118C299.83 108.861 305.072 119.032 308.025 129.955" stroke="#E92C24" stroke-width="2.66" stroke-dasharray="10.14 10.14 10.14"/>
<path d="M314.238 129.464C317.66 87.3724 328.531 43.567 349.521 15.8867C356.902 6.15624 366.708 -1.56385 374.896 3.43444C377.474 5.01 380.527 8.41918 382.961 12.1271" stroke="#E92C24" stroke-width="2.91" stroke-dasharray="12.12 12.12 12.12"/>
<path d="M320.629 129.464C326.812 115.001 335.939 101.875 348.331 93.1013C356.407 87.3968 365.309 88.7008 369.435 88.66C393.78 88.4263 411.244 103.992 416.68 109.27" stroke="#E92C24" stroke-width="2.66" stroke-dasharray="11.09 11.09 11.09"/>
<path d="M320.999 117.715C323.291 110.489 340.945 57.103 383.235 35.6947C406.023 24.1581 428.844 24.5574 428.844 24.5574C443.784 24.8291 452.376 28.8548 454.27 29.7729C465.834 35.3797 472.47 44.0044 475.567 48.6793" stroke="#E92C24" stroke-width="2.66" stroke-dasharray="11.09 11.09 11.09"/>
<path d="M326.298 144.939C326.298 151.51 314.618 168.844 314.618 168.844C314.618 168.844 302.951 151.505 302.951 144.939C302.951 138.374 308.174 133.041 314.618 133.041C321.061 133.041 326.298 138.368 326.298 144.939Z" fill="#2B2E86"/>
<path d="M320.113 144.415C320.143 147.474 317.688 149.978 314.629 150.008C311.57 149.978 309.114 147.474 309.144 144.415C309.112 141.355 311.568 138.849 314.629 138.819C317.689 138.849 320.145 141.355 320.113 144.415Z" fill="#E92C24"/>
</svg>
