<svg width="29" height="29" viewBox="0 0 29 29" fill="none" xmlns="http://www.w3.org/2000/svg">
<path d="M14.7309 0.435883C6.85444 0.435883 0.461914 6.82841 0.461914 14.7049C0.461914 22.5814 6.85444 28.9739 14.7309 28.9739C22.6075 28.9739 29 22.5814 29 14.7049C29 6.82841 22.6075 0.435883 14.7309 0.435883ZM14.7309 4.71659C17.0996 4.71659 19.0117 6.62864 19.0117 8.9973C19.0117 11.366 17.0996 13.278 14.7309 13.278C12.3623 13.278 10.4502 11.366 10.4502 8.9973C10.4502 6.62864 12.3623 4.71659 14.7309 4.71659ZM14.7309 24.9786C11.1637 24.9786 8.01023 23.1522 6.16953 20.384C6.21233 17.5445 11.8771 15.9891 14.7309 15.9891C17.5705 15.9891 23.2496 17.5445 23.2924 20.384C21.4517 23.1522 18.2982 24.9786 14.7309 24.9786Z" fill="white"/>
</svg>
