<svg width="18" height="27" viewBox="0 0 18 27" fill="none" xmlns="http://www.w3.org/2000/svg">
<path d="M8.97461 0.679138C4.02575 0.679138 0 4.70489 0 9.65375C0 16.3847 8.97461 26.3209 8.97461 26.3209C8.97461 26.3209 17.9492 16.3847 17.9492 9.65375C17.9492 4.70489 13.9235 0.679138 8.97461 0.679138ZM8.97461 3.24331C10.3849 3.24331 11.5388 4.39719 11.5388 5.80749C11.5388 7.2306 10.3849 8.37166 8.97461 8.37166C7.56431 8.37166 6.41044 7.2306 6.41044 5.80749C6.41044 4.39719 7.56431 3.24331 8.97461 3.24331ZM8.97461 16.0642C6.83352 16.0642 4.94885 14.9744 3.84626 13.3077C3.8719 11.6153 7.26943 10.6794 8.97461 10.6794C10.6798 10.6794 14.0773 11.6153 14.103 13.3077C13.0004 14.9744 11.1157 16.0642 8.97461 16.0642Z" fill="#E92C24"/>
</svg>
