<svg width="70" height="52" viewBox="0 0 70 52" fill="none" xmlns="http://www.w3.org/2000/svg">
<path d="M6.82281 7.21521H63.1772V0.953613H6.82281C3.37894 0.953613 0.561218 3.77133 0.561218 7.21521V44.7848C0.561218 48.2287 3.37894 51.0464 6.82281 51.0464H19.346V44.7848H6.82281V7.21521ZM38.1308 26H25.6076V31.5728C23.6978 33.2948 22.4768 35.7368 22.4768 38.5232C22.4768 41.3096 23.6978 43.7516 25.6076 45.4736V51.0464H38.1308V45.4736C40.0406 43.7516 41.2616 41.2783 41.2616 38.5232C41.2616 35.7681 40.0406 33.2948 38.1308 31.5728V26ZM31.8692 43.2194C29.2706 43.2194 27.173 41.1218 27.173 38.5232C27.173 35.9246 29.2706 33.827 31.8692 33.827C34.4678 33.827 36.5654 35.9246 36.5654 38.5232C36.5654 41.1218 34.4678 43.2194 31.8692 43.2194ZM66.308 13.4768H47.5232C45.9578 13.4768 44.3924 15.0422 44.3924 16.6076V47.9156C44.3924 49.481 45.9578 51.0464 47.5232 51.0464H66.308C67.8734 51.0464 69.4388 49.481 69.4388 47.9156V16.6076C69.4388 15.0422 67.8734 13.4768 66.308 13.4768ZM63.1772 44.7848H50.654V19.7384H63.1772V44.7848Z" fill="#E92C24"/>
</svg>
