<svg width="32" height="31" viewBox="0 0 32 31" fill="none" xmlns="http://www.w3.org/2000/svg">
<path d="M30.3047 11H19.9617L16.8188 1.62031C16.6641 1.16328 16.2352 0.875 15.75 0.875C15.2648 0.875 14.8359 1.16328 14.6812 1.62031L11.5383 11H1.125C0.50625 11 0 11.5063 0 12.125C0 12.1883 0.0070312 12.2586 0.0210938 12.3148C0.0351562 12.5609 0.147656 12.8352 0.492188 13.1094L8.99297 19.1L5.73047 28.5852C5.56875 29.0422 5.73047 29.5555 6.11719 29.8508C6.32109 29.9984 6.51094 30.125 6.75 30.125C6.98203 30.125 7.25625 30.0055 7.45312 29.8719L15.75 23.9586L24.0469 29.8719C24.2437 30.0125 24.518 30.125 24.75 30.125C24.9891 30.125 25.1789 30.0055 25.3758 29.8508C25.7695 29.5555 25.9242 29.0492 25.7625 28.5852L22.5 19.1L30.9305 13.0531L31.1344 12.8773C31.3172 12.6805 31.5 12.4133 31.5 12.125C31.5 11.5063 30.9234 11 30.3047 11Z" fill="#ECDE1E"/>
</svg>
