<svg width="82" height="72" viewBox="0 0 82 72" fill="none" xmlns="http://www.w3.org/2000/svg">
<path d="M80.987 19.7509L74.4017 71.3722H52.159L45.6005 19.4931H72.755L78.122 0.955566L81.1644 1.87266L76.015 19.7124L80.987 19.7509ZM42.456 49.6165C42.456 49.6165 43.2877 42.9224 31.7538 42.9224H13.3853C1.8681 42.9224 2.6831 49.6165 2.6831 49.6165L42.456 49.6165ZM2.68311 64.6781C2.68311 64.6781 1.8681 71.3722 13.3853 71.3722H31.7555C43.2894 71.3722 42.4576 64.6781 42.4576 64.6781L2.68311 64.6781ZM40.7306 61.3311C42.6183 61.3311 44.1429 59.4668 44.1429 57.149C44.1429 54.8178 42.6183 52.9635 40.7306 52.9635H4.24952C2.37016 52.9635 0.835541 54.8178 0.835541 57.149C0.835541 59.4668 2.37016 61.3311 4.24952 61.3311H40.7306Z" fill="#E92C24"/>
</svg>
