<svg width="70" height="78" viewBox="0 0 70 78" fill="none" xmlns="http://www.w3.org/2000/svg">
<path d="M51.4137 29.367L18.5863 10.4365L51.4137 29.367Z" fill="#E92C24"/>
<path d="M51.4137 29.367L18.5863 10.4365" stroke="white" stroke-width="3" stroke-linecap="round" stroke-linejoin="round"/>
<path d="M67.8274 53.4404V24.2605C67.8248 21.6569 66.4347 19.2521 64.18 17.9504L38.6475 3.3604C36.3904 2.05728 33.6096 2.05728 31.3525 3.3604L5.8201 17.9504C3.56534 19.2521 2.17528 21.6569 2.17261 24.2605V53.4404C2.17528 56.044 3.56534 58.4488 5.8201 59.7506L31.3525 74.3406C33.6096 75.6437 36.3904 75.6437 38.6475 74.3406L64.1799 59.7506C66.4347 58.4488 67.8248 56.044 67.8274 53.4404Z" fill="#E92C24" stroke="white" stroke-width="3" stroke-linecap="round" stroke-linejoin="round"/>
<path d="M3.15741 20.467L35 38.8869L66.8426 20.467" fill="#E92C24"/>
<path d="M3.15741 20.467L35 38.8869L66.8426 20.467" stroke="white" stroke-width="3" stroke-linecap="round" stroke-linejoin="round"/>
<path d="M35 75.6173V38.8506V75.6173Z" fill="#E92C24"/>
<path d="M35 75.6173V38.8506" stroke="white" stroke-width="3" stroke-linecap="round" stroke-linejoin="round"/>
</svg>
