<svg width="55" height="58" viewBox="0 0 55 58" fill="none" xmlns="http://www.w3.org/2000/svg">
<path d="M3.82405 33.1985L1.0438 30.4182C-0.133417 29.241 -0.133417 27.3374 1.0438 26.1727L25.3772 1.82676C26.5544 0.649542 28.458 0.649542 29.6227 1.82676L53.9561 26.1602C55.1334 27.3374 55.1334 29.241 53.9561 30.4057L51.1759 33.1859C49.9862 34.3757 48.045 34.3506 46.8803 33.1358L32.5157 18.0574V54.0503C32.5157 55.716 31.1757 57.056 29.51 57.056H25.5025C23.8368 57.056 22.4968 55.716 22.4968 54.0503V18.0574L8.11966 33.1484C6.95496 34.3757 5.0138 34.4007 3.82405 33.1985Z" fill="#E92C24"/>
</svg>
