<svg width="74" height="54" viewBox="0 0 74 54" fill="none" xmlns="http://www.w3.org/2000/svg">
<path d="M7.62912 7.21603H67.3087V0.584961H7.62912C3.98203 0.584961 0.998047 3.56894 0.998047 7.21603V47.0025C0.998047 50.6495 3.98203 53.6335 7.62912 53.6335H20.8913V47.0025H7.62912V7.21603ZM40.7845 27.1092H27.5223V33.0109C25.4999 34.8344 24.2068 37.4206 24.2068 40.3714C24.2068 43.3222 25.4999 45.9083 27.5223 47.7319V53.6335H40.7845V47.7319C42.8069 45.9083 44.1 43.2891 44.1 40.3714C44.1 37.4537 42.8069 34.8344 40.7845 33.0109V27.1092ZM34.1534 45.3447C31.4015 45.3447 29.1801 43.1233 29.1801 40.3714C29.1801 37.6195 31.4015 35.3981 34.1534 35.3981C36.9053 35.3981 39.1267 37.6195 39.1267 40.3714C39.1267 43.1233 36.9053 45.3447 34.1534 45.3447ZM70.6243 13.8471H50.7311C49.0733 13.8471 47.4155 15.5049 47.4155 17.1626V50.318C47.4155 51.9758 49.0733 53.6335 50.7311 53.6335H70.6243C72.282 53.6335 73.9398 51.9758 73.9398 50.318V17.1626C73.9398 15.5049 72.282 13.8471 70.6243 13.8471ZM67.3087 47.0025H54.0466V20.4782H67.3087V47.0025Z" fill="#E92C24"/>
</svg>
