<svg width="31" height="35" viewBox="0 0 31 35" fill="none" xmlns="http://www.w3.org/2000/svg">
<path d="M22.25 13.5387L8.75 5.75366" stroke="white" stroke-width="3" stroke-linecap="round" stroke-linejoin="round"/>
<path d="M29 23.4386V11.4386C28.9989 10.3679 28.4273 9.37892 27.5 8.84357L17 2.84357C16.0718 2.30768 14.9282 2.30768 14 2.84357L3.5 8.84357C2.57275 9.37892 2.0011 10.3679 2 11.4386V23.4386C2.0011 24.5093 2.57275 25.4982 3.5 26.0336L14 32.0336C14.9282 32.5695 16.0718 32.5695 17 32.0336L27.5 26.0336C28.4273 25.4982 28.9989 24.5093 29 23.4386Z" stroke="white" stroke-width="3" stroke-linecap="round" stroke-linejoin="round"/>
<path d="M2.40503 9.87866L15.5 17.4537L28.595 9.87866" stroke="white" stroke-width="3" stroke-linecap="round" stroke-linejoin="round"/>
<path d="M15.5 32.5585V17.4385" stroke="white" stroke-width="3" stroke-linecap="round" stroke-linejoin="round"/>
</svg>
