<svg width="45" height="32" viewBox="0 0 45 32" fill="none" xmlns="http://www.w3.org/2000/svg">
<path d="M43.6852 14.6852L39.5719 10.5719C38.7281 9.72812 37.582 9.25703 36.3867 9.25703H33.75V2.5C33.75 1.25547 32.7445 0.25 31.5 0.25H2.25C1.00547 0.25 0 1.25547 0 2.5V26.125C0 29.2328 2.51719 31.75 5.625 31.75C7.47422 31.75 9.09844 30.843 10.125 29.4719C11.1516 30.85 12.7758 31.75 14.625 31.75C17.7328 31.75 20.25 29.2328 20.25 26.125C20.25 25.7383 20.2078 25.3656 20.1375 25H31.6125C31.5352 25.3656 31.5 25.7383 31.5 26.125C31.5 29.2328 34.0172 31.75 37.125 31.75C40.2328 31.75 42.75 29.2328 42.75 26.125C42.75 25.7383 42.7078 25.3656 42.6375 25H43.875C44.4938 25 45 24.4937 45 23.875V17.8633C45 16.668 44.5289 15.5289 43.6852 14.6852ZM5.625 28.375C4.3875 28.375 3.375 27.3625 3.375 26.125C3.375 24.8875 4.3875 23.875 5.625 23.875C6.8625 23.875 7.875 24.8875 7.875 26.125C7.875 27.3625 6.8625 28.375 5.625 28.375ZM14.625 28.375C13.3875 28.375 12.375 27.3625 12.375 26.125C12.375 24.8875 13.3875 23.875 14.625 23.875C15.8625 23.875 16.875 24.8875 16.875 26.125C16.875 27.3625 15.8625 28.375 14.625 28.375ZM33.75 12.625H36.3867C36.6891 12.625 36.9703 12.7445 37.1813 12.9555L40.2258 16H33.75V12.625ZM37.125 28.375C35.8875 28.375 34.875 27.3625 34.875 26.125C34.875 24.8875 35.8875 23.875 37.125 23.875C38.3625 23.875 39.375 24.8875 39.375 26.125C39.375 27.3625 38.3625 28.375 37.125 28.375Z" fill="white"/>
</svg>
