<svg width="26" height="26" viewBox="0 0 26 26" fill="none" xmlns="http://www.w3.org/2000/svg">
<path d="M24.8606 22.0629L20.0364 17.2387C19.8186 17.0209 19.5235 16.8999 19.2138 16.8999H18.4251C19.7606 15.1919 20.5541 13.0435 20.5541 10.7064C20.5541 5.14669 16.0493 0.641846 10.4896 0.641846C4.9299 0.641846 0.425049 5.14669 0.425049 10.7064C0.425049 16.2661 4.9299 20.7709 10.4896 20.7709C12.8267 20.7709 14.9751 19.9774 16.6831 18.6419V19.4306C16.6831 19.7403 16.8041 20.0354 17.0219 20.2532L21.8461 25.0774C22.3009 25.5322 23.0364 25.5322 23.4864 25.0774L24.8557 23.708C25.3106 23.2532 25.3106 22.5177 24.8606 22.0629ZM10.4896 16.8999C7.06861 16.8999 4.29602 14.1322 4.29602 10.7064C4.29602 7.28541 7.06377 4.51282 10.4896 4.51282C13.9106 4.51282 16.6831 7.28057 16.6831 10.7064C16.6831 14.1274 13.9154 16.8999 10.4896 16.8999Z" fill="#E92C24"/>
</svg>
