<svg width="90" height="46" viewBox="0 0 90 46" fill="none" xmlns="http://www.w3.org/2000/svg">
<path d="M75.3325 31.8269C78.974 31.8269 81.9326 34.8038 81.9326 38.4619C81.9387 42.1143 78.9849 45.0812 75.3325 45.0913C71.6767 45.0842 68.7182 42.1159 68.7233 38.46C68.7192 34.8043 71.6768 31.836 75.3325 31.8269ZM75.3325 41.8806C77.1599 41.8745 78.6367 40.3887 78.6316 38.5613C78.6327 36.7361 77.1577 35.2537 75.3325 35.2456C73.5038 35.2487 72.0232 36.7326 72.0242 38.5613C72.0218 39.4405 72.3692 40.2845 72.9898 40.9072C73.6105 41.5299 74.4533 41.8801 75.3325 41.8806ZM17.2615 31.8269C20.9085 31.8269 23.8652 34.8038 23.8652 38.4619C23.8723 42.1164 20.916 45.0851 17.2615 45.0932C13.6162 45.0932 10.6522 42.1236 10.6522 38.4619C10.6481 34.8059 13.6054 31.837 17.2615 31.8269ZM17.2615 41.8806C19.0895 41.8745 20.5673 40.3893 20.5642 38.5613C20.5642 36.7351 19.0876 35.2527 17.2614 35.2456C15.4352 35.2456 13.9531 36.735 13.9531 38.5613C13.9501 40.3915 15.4313 41.8776 17.2615 41.8806ZM2.6438 0.907227H60.7204C61.7317 0.91027 62.5495 1.73145 62.5485 2.74271V19.3891H66.2066V9.16966C66.2056 8.68351 66.3979 8.21692 66.7412 7.87265C67.0844 7.52838 67.5504 7.33466 68.0366 7.33418L80.4966 7.33417C82.669 7.33417 84.6094 8.93953 84.9573 11.2371V11.1174L86.9014 22.1395L86.8978 22.1782C88.2205 22.4053 89.1866 23.5534 89.1843 24.8955L89.1235 25.4846L89.1843 25.4681L86.4412 37.8672H83.5839V37.7549C83.5839 33.3107 79.9479 29.7116 75.4651 29.7116C70.9859 29.7116 67.348 33.3107 67.348 37.7549V37.8672H25.5092V37.7549C25.5092 33.3107 21.8713 29.7116 17.3958 29.7116C12.913 29.7116 9.27512 33.3107 9.27512 37.7549L9.28248 37.8672H0.815678V2.74271C0.813639 1.73104 1.63212 0.909261 2.6438 0.907227ZM72.6097 10.3166V19.3891H83.5821L82.2105 11.6918C82.0964 10.7713 81.2956 10.092 80.4966 10.092H72.6097V10.3166Z" fill="#E92C24"/>
</svg>
