<svg width="46" height="29" viewBox="0 0 46 29" fill="none" xmlns="http://www.w3.org/2000/svg">
<path d="M35.9375 17.1367H10.0906C9.78125 17.1367 9.52812 17.3898 9.52812 17.6992L9.52109 21.0742C9.52109 21.3836 9.77422 21.6367 10.0836 21.6367H35.9375C36.2469 21.6367 36.5 21.3836 36.5 21.0742V17.6992C36.5 17.3898 36.2469 17.1367 35.9375 17.1367ZM35.9375 23.8867H10.0695C9.76016 23.8867 9.50703 24.1398 9.50703 24.4492L9.5 27.8242C9.5 28.1336 9.75313 28.3867 10.0625 28.3867H35.9375C36.2469 28.3867 36.5 28.1336 36.5 27.8242V24.4492C36.5 24.1398 36.2469 23.8867 35.9375 23.8867ZM35.9375 10.3867H10.1047C9.79531 10.3867 9.54219 10.6398 9.54219 10.9492L9.53516 14.3242C9.53516 14.6336 9.78828 14.8867 10.0977 14.8867H35.9375C36.2469 14.8867 36.5 14.6336 36.5 14.3242V10.9492C36.5 10.6398 36.2469 10.3867 35.9375 10.3867ZM43.4258 0.613281L24.2938 0.646875L22.9491 0.613281L21.6992 0.646875L2.57422 0.613281C1.32266 1.14062 0.5 2.36406 0.5 3.72812V27.8242C0.5 28.1336 0.753125 28.3867 1.0625 28.3867H6.6875C6.99687 28.3867 7.25 28.1336 7.25 27.8242V10.3867C7.25 9.14922 8.27656 8.13672 9.54219 8.13672H36.4578C37.7234 8.13672 38.75 9.14922 38.75 10.3867V27.8242C38.75 28.1336 39.0031 28.3867 39.3125 28.3867H44.9375C45.2469 28.3867 45.5 28.1336 45.5 27.8242V3.72812C45.5 2.36406 44.6773 1.14062 43.4258 0.613281Z" fill="white"/>
</svg>
