<svg width="37" height="35" viewBox="0 0 37 35" fill="none" xmlns="http://www.w3.org/2000/svg">
<path d="M15.5 31.75C15.5 32.5784 14.8284 33.25 14 33.25C13.1716 33.25 12.5 32.5784 12.5 31.75C12.5 30.9216 13.1716 30.25 14 30.25C14.8284 30.25 15.5 30.9216 15.5 31.75Z" stroke="white" stroke-width="3" stroke-linecap="round" stroke-linejoin="round"/>
<path d="M32 31.75C32 32.5784 31.3284 33.25 30.5 33.25C29.6716 33.25 29 32.5784 29 31.75C29 30.9216 29.6716 30.25 30.5 30.25C31.3284 30.25 32 30.9216 32 31.75Z" stroke="white" stroke-width="3" stroke-linecap="round" stroke-linejoin="round"/>
<path d="M2 1.75H8L12.02 21.835C12.3031 23.2603 13.5671 24.2778 15.02 24.25H29.6C31.0529 24.2778 32.3169 23.2603 32.6 21.835L35 9.25H9.5" stroke="white" stroke-width="3" stroke-linecap="round" stroke-linejoin="round"/>
</svg>
