<svg width="29" height="29" viewBox="0 0 29 29" fill="none" xmlns="http://www.w3.org/2000/svg">
<path d="M14.7658 0.436531C22.5852 0.428756 28.9062 6.73939 28.9128 14.5633C28.9194 22.3872 22.5801 28.699 14.6752 28.6542C6.93317 28.6103 0.712773 22.3481 0.690068 14.5991C0.666478 6.77286 6.97799 0.444603 14.7658 0.436531ZM6.73365 14.5328C6.73365 15.8558 6.73156 17.1788 6.73365 18.5021C6.73812 20.8419 8.49933 22.6109 10.8353 22.6148C13.4709 22.6194 16.1066 22.6194 18.7422 22.6148C21.0985 22.6127 22.8609 20.8464 22.8636 18.4905C22.8662 15.8654 22.8662 13.2402 22.8636 10.6149C22.8612 8.25507 21.1012 6.48997 18.7458 6.48698C16.11 6.48398 13.4742 6.48398 10.8386 6.48698C8.49874 6.49056 6.73871 8.25446 6.73424 10.5955C6.73035 11.9074 6.73365 13.2203 6.73365 14.5328Z" fill="white"/>
<path d="M8.14088 14.5403C8.14088 13.2383 8.13459 11.9364 8.14268 10.6347C8.15098 9.29407 8.92854 8.27719 10.1614 7.97189C10.4179 7.90823 10.6796 7.89307 10.9422 7.89307C13.5147 7.89307 16.0871 7.89307 18.6594 7.89307C20.3504 7.89575 21.4536 9.00366 21.456 10.701C21.4596 13.2627 21.4596 15.8246 21.456 18.3865C21.4539 20.1036 20.3516 21.2058 18.6394 21.2088C16.0775 21.212 13.5156 21.212 10.9538 21.2088C9.24516 21.2067 8.14591 20.0988 8.14115 18.3839C8.13871 17.1021 8.14088 15.8213 8.14088 14.5403ZM14.7956 18.5832C16.9959 18.5885 18.8181 16.7861 18.8297 14.5926C18.8417 12.3481 17.0395 10.519 14.8153 10.5184C12.5857 10.5184 10.7773 12.3072 10.7659 14.5245C10.7604 15.5975 11.1823 16.6287 11.9384 17.3902C12.6945 18.1517 13.7225 18.5809 14.7956 18.5832ZM20.0909 10.2491C20.0932 9.69308 19.6444 9.2406 19.0884 9.23837C18.5324 9.23615 18.0799 9.68497 18.0777 10.241C18.0754 10.7969 18.5243 11.2495 19.0802 11.2517C19.6362 11.2539 20.0887 10.8049 20.0909 10.2491Z" fill="white"/>
<path d="M17.421 14.5496C17.4336 15.9679 16.256 17.1571 14.8223 17.1735C13.3836 17.1902 12.1888 16.0142 12.1744 14.5679C12.1601 13.1316 13.3516 11.9277 14.7876 11.9277C16.2369 11.9293 17.4132 13.1004 17.421 14.5496Z" fill="white"/>
</svg>
