<svg width="29" height="29" viewBox="0 0 29 29" fill="none" xmlns="http://www.w3.org/2000/svg">
<path d="M15.4423 28.9596H13.6784C13.6089 28.9396 13.5382 28.9244 13.4667 28.9141C10.6557 28.6901 8.1253 27.7269 5.90929 25.9849C3.05932 23.7431 1.29749 20.8296 0.659861 17.2526C0.569967 16.7485 0.518225 16.2379 0.448975 15.7302V13.9662C0.48948 13.6307 0.524497 13.2941 0.571535 12.9596C0.975015 10.0893 2.12953 7.56124 4.07482 5.41369C6.25476 3.00744 8.94899 1.50563 12.1565 0.949532C12.6611 0.862251 13.1709 0.806851 13.6784 0.736816H15.4423C15.5129 0.752234 15.5829 0.776537 15.6545 0.781764C17.7843 0.94117 19.7852 1.5396 21.6168 2.63323C25.3537 4.86701 27.6505 8.12648 28.4554 12.4163C28.5515 12.9285 28.6007 13.4493 28.6717 13.9662V15.7302C28.6561 15.8012 28.6318 15.8715 28.6263 15.9431C28.4405 18.3627 27.6933 20.5967 26.3387 22.6068C24.0913 25.9439 20.9816 28.0003 17.0178 28.7403C16.4973 28.8381 15.9686 28.8877 15.4423 28.9596ZM15.3885 13.6955C15.3885 13.3443 15.3804 12.9999 15.3919 12.656C15.3979 12.483 15.3558 12.4179 15.1671 12.4208C14.2489 12.4305 13.3304 12.4305 12.4118 12.4208C12.2207 12.4187 12.1894 12.4874 12.1896 12.6583C12.1938 15.6897 12.1923 18.721 12.1852 21.7523C12.1852 21.9917 12.2589 22.0372 12.4797 22.034C13.352 22.0217 14.2251 22.0181 15.0971 22.0359C15.3506 22.0408 15.3953 21.9611 15.394 21.7275C15.384 20.019 15.3924 18.3104 15.3872 16.6019C15.3856 16.0377 15.5701 15.5566 15.9804 15.1714C16.9039 14.3036 18.3106 14.6982 18.6393 15.9131C18.7337 16.2619 18.7548 16.6187 18.7543 16.9774C18.7522 18.5757 18.7574 20.1739 18.7488 21.7722C18.7488 21.9789 18.8032 22.0361 19.0101 22.0335C19.9011 22.0223 20.792 22.0223 21.6829 22.0335C21.9004 22.0364 21.9581 21.975 21.9565 21.7586C21.9471 20.2706 21.9537 18.7826 21.9508 17.2944C21.9508 16.7164 21.961 16.1389 21.8949 15.5611C21.6808 13.6856 20.5708 12.4639 18.7836 12.2345C17.4715 12.0662 16.3475 12.4393 15.5453 13.5591C15.51 13.6069 15.4933 13.6772 15.3885 13.6955ZM7.22583 17.1902C7.22583 18.7137 7.23054 20.2374 7.22061 21.7609C7.2193 21.9812 7.28411 22.0353 7.49656 22.0327C8.38662 22.0212 9.27686 22.0212 10.1673 22.0327C10.3729 22.0351 10.4286 21.9804 10.4286 21.7714C10.4218 18.7336 10.4218 15.6957 10.4286 12.6575C10.4286 12.4584 10.3661 12.4161 10.1796 12.4179C9.28035 12.427 8.38062 12.4286 7.48141 12.4179C7.27731 12.4153 7.22008 12.4662 7.22165 12.6748C7.23028 14.1797 7.22583 15.6849 7.22583 17.1902ZM8.8199 11.1074C9.85316 11.1053 10.5708 10.4854 10.6316 9.53944C10.6891 8.66454 10.0674 7.94538 9.13322 7.80871C8.23166 7.67569 7.38785 8.13196 7.12549 8.89424C6.73089 10.0407 7.54987 11.11 8.81964 11.1084L8.8199 11.1074Z" fill="white"/>
</svg>
