<svg width="69" height="92" viewBox="0 0 69 92" fill="none" xmlns="http://www.w3.org/2000/svg">
<path d="M0.913513 73.3104C1.26761 72.6814 1.80793 72.2753 2.43219 71.9253C4.36571 70.839 6.28164 69.7216 8.19437 68.5993C8.67396 68.3164 9.2015 68.0862 9.71305 68.2996C10.3469 68.565 10.5923 68.2461 10.9304 67.8248C16.5279 60.8269 26.6623 60.0364 33.2765 66.0767C33.6218 66.4032 34.0429 66.6387 34.5019 66.7618C36.5329 67.3053 38.5559 67.8808 40.5862 68.4316C44.6746 69.5409 45.9791 71.2618 45.8951 75.4814C46.2468 75.6037 46.4627 75.3168 46.7056 75.1768C50.3824 73.0667 54.0377 70.9214 57.724 68.8296C61.3089 66.7953 65.5021 68.8296 66.0472 72.9132C66.3397 75.0993 65.5125 76.9792 63.6221 78.1087C58.8055 80.9933 54.0241 83.9572 49.0092 86.475C43.2055 89.3901 37.0996 89.693 30.9178 87.7227C27.7052 86.6856 24.3293 86.2481 20.9585 86.4318C20.514 86.4566 20.1496 86.5118 19.897 86.9458C19.6956 87.2927 19.3047 87.4494 18.9658 87.6484C16.7693 88.9369 14.5736 90.2269 12.3787 91.5187H11.5355C10.8808 91.1989 10.4684 90.673 10.1087 90.0486C7.05537 84.7435 3.99137 79.4446 0.916711 74.1521L0.913513 73.3104ZM38.4257 85.6469C40.4213 85.6449 42.4067 85.361 44.3229 84.8036C46.0466 84.2926 47.7016 83.5735 49.2514 82.6623C53.2858 80.3284 57.3217 77.9978 61.3593 75.6708C62.5215 74.9986 63.0026 74.0834 62.7581 73.0627C62.3872 71.5168 60.7822 70.8774 59.2899 71.7303C55.5113 73.8867 51.741 76.06 47.9789 78.2502C45.8624 79.4771 43.5876 80.1573 41.1457 80.0086C38.1147 79.8232 35.1693 79.0439 32.1935 78.4764C31.371 78.3221 30.9586 77.5044 31.0896 76.6435C31.2079 75.8578 31.841 75.3239 32.6883 75.3287C32.9966 75.3376 33.3036 75.3729 33.6059 75.4342C35.732 75.8147 37.8486 76.2638 39.9859 76.5668C41.6644 76.8066 42.9337 75.3471 42.5756 73.7061C42.3358 72.6174 41.5493 72.0827 40.535 71.8078C38.6167 71.2858 36.6984 70.7271 34.7672 70.2515C33.1686 69.8574 31.6364 69.3915 30.5309 68.0519C30.3575 67.8408 30.0993 67.6954 29.8699 67.5339C24.3243 63.6357 16.8412 64.9969 12.9598 70.5505C12.3915 71.3633 12.3747 71.9316 12.8799 72.7709C14.827 76.0225 16.707 79.3149 18.5749 82.6128C18.8875 83.1659 19.2288 83.3321 19.8434 83.2658C23.8967 82.8006 27.8541 83.2945 31.7267 84.5343C33.9048 85.2321 36.1292 85.6485 38.4257 85.6469ZM16.2562 85.1874C16.205 85.0874 16.1466 84.9603 16.0771 84.8396C13.7245 80.7626 11.3729 76.6862 9.02245 72.6103C8.81463 72.249 8.6228 72.1395 8.23194 72.3785C7.27278 72.9609 6.30215 73.5204 5.32008 74.057C4.91163 74.28 4.92842 74.4982 5.13544 74.8563C7.49765 78.928 9.8516 83.0044 12.1973 87.0857C12.4067 87.4501 12.5969 87.5564 12.983 87.3199C13.9422 86.738 14.9213 86.1936 15.8885 85.6285C16.0499 85.5303 16.2641 85.4703 16.2562 85.1874Z" fill="#E92C24"/>
<path d="M68.9398 18.6904C68.5809 19.3146 68.0478 19.7295 67.4211 20.078C65.494 21.1634 63.5757 22.2777 61.6621 23.4007C61.1514 23.7004 60.6103 23.9066 60.0635 23.6884C59.5536 23.4846 59.329 23.6637 59.0324 24.0393C53.3965 31.1827 43.2726 32.006 36.5208 25.8777C36.1923 25.5736 35.7936 25.3556 35.3603 25.2431C33.1422 24.6412 30.9481 23.9322 28.7076 23.4343C25.6487 22.7541 23.5121 20.0772 23.9774 16.7944C23.9806 16.6898 23.9731 16.585 23.955 16.4819C23.5729 16.4739 23.3435 16.7081 23.0861 16.856C19.4613 18.9398 15.8524 21.0531 12.2156 23.1161C9.41007 24.7083 6.20404 23.9578 4.59742 21.392C3.01239 18.8566 3.65186 15.4348 6.21201 13.901C11.0007 11.0307 15.7637 8.09721 20.7434 5.57461C26.5927 2.61159 32.7417 2.29746 38.9811 4.29572C42.1944 5.3286 45.5708 5.75892 48.9405 5.56502C49.3553 5.54184 49.7046 5.49068 49.93 5.08544C50.0818 4.81048 50.3656 4.65781 50.6357 4.50274C52.9745 3.16258 55.3103 1.82214 57.6433 0.481445H58.3179C58.9725 0.801167 59.3865 1.32551 59.7454 1.94977C62.7987 7.25555 65.8628 12.5549 68.9374 17.8479L68.9398 18.6904ZM32.713 6.33555C27.6773 6.37711 24.1604 7.29471 20.9024 9.17308C17.0844 11.376 13.2667 13.5794 9.44919 15.7833C8.96323 16.0639 8.46207 16.3252 8.00406 16.6458C7.20478 17.2053 6.87387 18.1405 7.11682 19.0117C7.35462 19.9082 8.11829 20.5668 9.03998 20.6703C9.72495 20.7542 10.2901 20.4417 10.8544 20.1155C14.5008 18.0086 18.1483 15.9038 21.7968 13.801C22.9454 13.1368 24.15 12.6157 25.4433 12.3095C27.3041 11.8683 29.1632 11.8811 31.0384 12.2592C33.1838 12.6908 35.3435 13.0465 37.4872 13.4813C38.4464 13.6756 38.902 14.4149 38.7661 15.3501C38.643 16.1942 37.9628 16.7089 37.0076 16.6665C36.7279 16.6451 36.45 16.6054 36.1756 16.5475C34.0774 16.1718 31.9872 15.733 29.8786 15.4284C28.1721 15.1886 26.8724 16.7169 27.2969 18.3683C27.5638 19.4074 28.336 19.9157 29.3207 20.1827C31.8657 20.8709 34.4067 21.5735 36.9509 22.2657C37.4456 22.4008 37.8933 22.5942 38.2617 22.9763C43.697 28.6153 52.9274 27.7121 57.1709 21.0268C57.4906 20.5264 57.5234 20.1875 57.2228 19.6751C55.2342 16.2845 53.2708 12.8792 51.3328 9.45923C50.9851 8.84376 50.607 8.65992 49.9356 8.73985C46.2891 9.15309 42.7003 8.80459 39.1889 7.7639C36.6487 7.01176 34.1133 6.30278 32.713 6.33555ZM64.8897 17.4978C64.8546 17.4291 64.821 17.3524 64.7794 17.2796C62.3858 13.1296 59.9927 8.97885 57.6001 4.82726C57.4171 4.50754 57.23 4.47877 56.9255 4.65941C55.9367 5.2445 54.9432 5.8224 53.9393 6.38031C53.59 6.57454 53.5396 6.76717 53.7411 7.11167C56.1155 11.2116 58.4831 15.3131 60.8437 19.4162C61.0235 19.7279 61.1946 19.8822 61.5686 19.6559C62.5774 19.0501 63.6029 18.4738 64.6204 17.8823C64.7627 17.8 64.9257 17.7216 64.8897 17.4978Z" fill="#E92C24"/>
<path d="M50.7335 40.3033C50.9101 44.5708 50.3705 48.7088 48.4698 52.591C45.7969 58.0498 41.6361 61.9056 35.9871 64.1586C35.2677 64.4463 34.6155 64.4735 33.8849 64.1673C25.3907 60.6057 20.4798 54.2856 19.2648 45.1479C18.8932 42.3559 19.1593 39.5376 19.1162 36.7312C19.0978 35.7641 19.7372 35.3085 20.5749 35.012C24.5099 33.6108 28.4728 32.2783 32.355 30.7413C34.1487 30.0307 35.7049 30.0331 37.497 30.7413C41.3528 32.2719 45.2926 33.5884 49.1956 35C50.4297 35.446 50.727 35.8792 50.7326 37.1837C50.7374 38.2251 50.7335 39.2642 50.7335 40.3033ZM22.4101 41.3944C22.4101 41.8156 22.3989 42.2369 22.4101 42.6581C22.6555 51.0268 26.5873 57.0088 34.08 60.6992C34.6603 60.9853 35.1502 60.9805 35.7441 60.7032C41.1906 58.1622 44.7954 54.0282 46.6146 48.3068C47.6585 45.0224 47.4012 41.6437 47.4371 38.2827C47.4419 37.8751 47.1917 37.7671 46.8888 37.6584C43.0633 36.2847 39.2387 34.908 35.4148 33.5284C35.0997 33.4068 34.7507 33.4068 34.4356 33.5284C30.6128 34.9112 26.7871 36.2866 22.9584 37.6545C22.5492 37.7999 22.3901 38.0109 22.3989 38.4481C22.4293 39.4281 22.4101 40.4112 22.4101 41.3944Z" fill="#E92C24"/>
<path d="M33.9716 52.1485C33.306 52.1608 32.6651 51.8969 32.2012 51.4196C31.162 50.3941 30.123 49.3742 29.1078 48.3263C28.3884 47.5845 28.4084 46.8747 29.1286 46.1098C29.6082 45.5999 30.107 45.1051 30.6145 44.6215C31.4138 43.863 32.0932 43.867 32.8925 44.6087C34.0995 45.7277 34.0987 45.7277 35.2449 44.5807C36.0978 43.7271 36.9482 42.8726 37.8027 42.023C38.7978 41.0374 39.4308 41.043 40.4444 42.0445C40.9239 42.5177 41.4147 42.9798 41.8615 43.4833C42.4362 44.1308 42.4658 44.8269 41.8615 45.444C39.8633 47.4878 37.8274 49.5004 35.794 51.5123C35.3161 51.9887 34.6958 52.1637 33.9716 52.1485Z" fill="#E92C24"/>
</svg>
