<svg width="29" height="29" viewBox="0 0 29 29" fill="none" xmlns="http://www.w3.org/2000/svg">
<path d="M21.0233 28.948C19.7311 29.0305 18.5531 28.6597 17.4256 28.0954C17.1447 27.9549 16.879 27.9262 16.5782 27.9658C11.9356 28.579 7.99834 27.1582 4.81595 23.7237C2.93355 21.6919 1.87395 19.2402 1.51785 16.4842C1.36108 15.2871 1.3789 14.0734 1.57074 12.8814C1.60923 12.6624 1.57044 12.4367 1.46106 12.2434C0.813153 11.0381 0.477475 9.74944 0.480489 8.37792C0.487409 5.35328 2.47287 2.4525 5.2673 1.3255C7.3246 0.495594 9.35465 0.542439 11.3574 1.46604C11.9449 1.73804 12.497 1.80817 13.1305 1.732C15.838 1.4074 18.4173 1.89974 20.7974 3.22077C24.7662 5.42307 27.0179 8.84215 27.6607 13.3429C27.8234 14.4928 27.8045 15.6613 27.6045 16.8052C27.5582 17.073 27.6249 17.286 27.7436 17.5154C28.3747 18.7355 28.7221 20.0239 28.7029 21.4141C28.6545 24.9628 26.0214 28.1486 22.5538 28.8431C22.0498 28.9404 21.5358 28.9757 21.0233 28.948ZM13.9899 5.50681C13.4724 5.49167 12.9213 5.51192 12.3747 5.62226C11.0452 5.89 9.82934 6.3881 8.87373 7.39391C7.76845 8.55686 7.41265 9.98005 7.4995 11.5443C7.55388 12.5236 7.95387 13.352 8.63842 14.0398C9.39332 14.7981 10.3297 15.2487 11.3238 15.5915C12.4498 15.978 13.6125 16.2319 14.7595 16.5432C15.5679 16.7626 16.3904 16.95 17.1305 17.3658C18.2337 17.9857 18.4152 19.1571 17.5621 20.0952C16.9989 20.7154 16.2609 20.9572 15.4684 21.0478C14.1333 21.1959 12.9141 20.9433 11.9467 19.9154C11.5726 19.5183 11.1883 19.1296 10.8108 18.7367C10.5671 18.4822 10.3147 18.2402 10.0091 18.0591C8.95426 17.4344 7.7381 18.0498 7.61158 19.275C7.53913 19.9263 7.68384 20.5834 8.02298 21.143C8.52273 21.9832 9.26199 22.555 10.1076 23.0005C11.2601 23.6074 12.5003 23.9153 13.7856 24.0441C15.3735 24.2031 16.9364 24.1046 18.4408 23.5128C20.8106 22.5807 22.1352 20.5894 22.1322 18.252C22.1301 16.6477 21.4359 15.4624 20.1398 14.595C19.3735 14.0833 18.5288 13.7331 17.6471 13.4834C16.3615 13.1208 15.0678 12.785 13.7814 12.4256C13.2221 12.2694 12.6647 12.0971 12.1718 11.7734C11.6144 11.4075 11.4482 10.9203 11.6468 10.2826C11.8181 9.7325 12.1706 9.33782 12.7001 9.14016C14.2649 8.55655 15.7461 8.71523 17.0957 9.73403C17.6186 10.1287 18.0943 10.5866 18.615 10.9846C19.2588 11.4764 19.9896 11.4612 20.6934 11.1732C21.7292 10.7501 21.8744 9.61948 21.4657 8.68923C21.0642 7.77559 20.3 7.20168 19.4472 6.74018C17.7523 5.82322 15.9264 5.50167 13.9899 5.50681Z" fill="white"/>
</svg>
