<svg width="63" height="67" viewBox="0 0 63 67" fill="none" xmlns="http://www.w3.org/2000/svg">
<path d="M31.1519 66.5527C29.5935 65.6231 27.9214 64.9151 26.2924 64.1264C18.0442 60.1317 9.79591 56.1507 1.54774 52.1835C0.922189 51.8829 0.666207 51.4791 0.667916 50.7883C0.68055 39.3404 0.68055 27.8931 0.667916 16.4464C0.667916 15.7487 0.937753 15.3569 1.55976 15.058C11.319 10.361 21.0725 5.65327 30.8203 0.934647C31.2731 0.686417 31.8213 0.686417 32.2741 0.934647C42.023 5.65327 51.7766 10.361 61.5347 15.058C62.155 15.3569 62.4248 15.7539 62.423 16.4516C62.4093 27.8971 62.4093 39.3444 62.423 50.7934C62.423 51.5271 62.1171 51.9172 61.4849 52.2214C51.8424 56.8621 42.2046 61.5126 32.5714 66.1729C32.348 66.2813 32.0816 66.3242 31.9304 66.5561L31.1519 66.5527ZM60.4778 34.1612C60.4778 28.8663 60.4778 23.5714 60.4778 18.2765C60.4778 17.809 60.4692 17.6166 59.9228 17.8882C57.3126 19.1752 54.6852 20.4313 52.0578 21.6823C51.7336 21.7971 51.5317 22.1208 51.5715 22.4625C51.5887 26.0419 51.5715 29.623 51.5904 33.2023C51.5904 33.8897 51.3275 34.3142 50.7089 34.6063C48.5214 35.6373 46.3476 36.6992 44.167 37.7475C43.0346 38.2922 42.4383 37.9193 42.4366 36.6787C42.4366 33.1405 42.4262 29.6041 42.4468 26.0676C42.4468 25.6088 42.294 25.3803 41.8936 25.1947C32.5593 20.7017 23.2302 16.1984 13.9063 11.6848C13.6093 11.5204 13.2477 11.5243 12.9544 11.6951C10.1276 13.0698 7.28364 14.4342 4.45869 15.8055C4.29713 15.8828 4.01869 15.9086 4.02393 16.0942C4.02393 16.1989 4.31086 16.309 4.47926 16.3914L24.208 25.913C25.2012 26.3924 25.49 26.8598 25.1755 27.4818C24.8799 28.0695 24.3352 28.1228 23.3798 27.6537C16.6735 24.4129 9.96772 21.1697 3.26264 17.9242C2.71967 17.6596 2.59077 17.682 2.59077 18.3367C2.60908 28.8623 2.60908 39.388 2.59077 49.9136C2.59077 50.3965 2.74714 50.6182 3.1681 50.8209C12.0591 55.0997 20.9465 59.3865 29.8306 63.6813C30.5747 64.0421 30.5763 64.0405 30.5763 63.1898C30.5763 52.8795 30.5626 42.5692 30.6004 32.259C30.6004 31.3705 30.3718 30.8722 29.5281 30.611C29.088 30.4437 28.6616 30.2421 28.2531 30.0078C27.5812 29.6745 27.3355 29.1676 27.5794 28.6331C27.8235 28.0988 28.3872 27.9458 29.0641 28.262C29.7034 28.561 30.3478 28.8515 30.9664 29.19C31.3138 29.4038 31.751 29.4078 32.1022 29.2003C34.0974 28.2121 36.1096 27.2585 38.1166 26.279C38.5496 26.0676 38.9758 25.9697 39.3745 26.3082C39.9535 26.7859 39.8058 27.5935 39.0462 27.9664C37.1062 28.9202 35.1644 29.8738 33.2037 30.7829C32.6883 31.0217 32.4958 31.2984 32.4975 31.8826C32.5181 42.3224 32.5233 52.7621 32.5129 63.2019C32.5129 64.049 32.5129 64.049 33.2656 63.6864C42.1519 59.3974 51.0394 55.1111 59.928 50.8278C60.3558 50.6215 60.5003 50.3878 60.4985 49.9119C60.4659 44.6657 60.4778 39.4143 60.4778 34.1612ZM31.5455 2.74062C31.3875 2.81447 31.2344 2.88496 31.0815 2.95882C28.8076 4.05403 26.5347 5.15205 24.2629 6.25301C24.0723 6.34584 23.7372 6.3492 23.7475 6.61043C23.7475 6.72377 24.0705 6.84236 24.2629 6.93343C33.0841 11.1973 41.905 15.4618 50.7261 19.7268C51.0388 19.9045 51.422 19.9045 51.7347 19.7268C54.0202 18.6065 56.3159 17.505 58.6083 16.3949C58.7801 16.3124 59.0361 16.2849 59.0602 16.0907C59.0688 16.0151 58.7801 15.8845 58.6152 15.8054L31.9648 2.93306C31.8325 2.86946 31.6967 2.80934 31.5455 2.74062ZM21.3676 7.70845C21.1957 7.77888 21.0462 7.839 20.8933 7.91292C19.3513 8.65877 17.811 9.4062 16.2725 10.1554C16.1196 10.2293 15.9786 10.3273 15.8327 10.4097C15.968 10.51 16.1098 10.6013 16.2571 10.683C25.1411 14.9743 34.0245 19.2663 42.9074 23.5588C43.1865 23.7152 43.5269 23.7152 43.8062 23.5588C45.3029 22.8199 46.8098 22.1033 48.31 21.3696C48.4938 21.2802 48.8084 21.2527 48.8152 21.0465C48.8221 20.8403 48.5059 20.7991 48.3238 20.7114C39.5187 16.4533 30.7127 12.1991 21.9054 7.94905C21.7319 7.85799 21.553 7.78926 21.3676 7.70845ZM49.6589 27.963C49.6589 26.4423 49.6469 24.9197 49.6589 23.399C49.6589 22.9419 49.5421 22.8972 49.1555 23.0897C47.6983 23.8114 46.2348 24.5194 44.765 25.2136C44.4983 25.3012 44.3292 25.5634 44.3595 25.8425C44.3698 28.884 44.3698 31.9262 44.3595 34.9688C44.3595 35.4345 44.4901 35.4655 44.8749 35.2799C46.3338 34.5599 47.7962 33.8485 49.2672 33.1594C49.6108 33.003 49.6727 32.7968 49.6693 32.4617C49.6503 30.9633 49.6589 29.4666 49.6589 27.963Z" fill="white"/>
<path d="M5.8935 40.0347C6.06593 40.0858 6.2353 40.1474 6.4004 40.2185C9.03529 41.4868 11.6735 42.7595 14.3153 44.0368C15.0628 44.3993 15.3205 44.9457 15.025 45.5026C14.7466 46.0283 14.2105 46.1212 13.4561 45.7569C10.7973 44.4773 8.13948 43.1953 5.4828 41.9113C4.9828 41.6705 4.68714 41.3063 4.8401 40.7374C4.96223 40.277 5.29554 40.0278 5.8935 40.0347Z" fill="white"/>
<path d="M11.0933 47.6574C11.1036 48.3069 10.4747 48.8361 9.87838 48.5681C8.30092 47.8635 6.74581 47.1074 5.20949 46.317C4.76961 46.092 4.65804 45.6108 4.90377 45.1415C5.14937 44.6725 5.579 44.4405 6.08077 44.6708C7.61013 45.3787 9.12575 46.1193 10.638 46.8651C10.9339 47.015 11.1127 47.3262 11.0933 47.6574Z" fill="white"/>
</svg>
