<svg width="29" height="29" viewBox="0 0 29 29" fill="none" xmlns="http://www.w3.org/2000/svg">
<path d="M28.2182 13.9121V15.1791C28.2098 15.2367 28.1963 15.2914 28.1934 15.3478C28.1563 16.1435 28.0448 16.934 27.8606 17.7089C26.9808 21.3631 24.9789 24.2379 21.8547 26.3333C19.9649 27.5977 17.8748 28.3322 15.6124 28.5721C15.3225 28.6029 15.0319 28.6274 14.7414 28.6547H13.4756C13.4226 28.6259 13.3633 28.6328 13.3069 28.6299C11.9114 28.5602 10.5351 28.2749 9.22677 27.7843C6.07881 26.5972 3.64513 24.555 1.92574 21.6578C0.900101 19.9264 0.292549 18.0513 0.0829277 16.049C0.0518265 15.7596 0.0287895 15.469 0 15.1791V13.9121C0.0463562 13.725 0.0351257 13.5321 0.0509644 13.3423C0.166142 11.9619 0.472797 10.625 0.992817 9.34224C2.26743 6.19907 4.38927 3.80418 7.35832 2.15754C8.98749 1.25456 10.7367 0.717838 12.5899 0.520313C12.8848 0.488926 13.1805 0.465313 13.4756 0.436523H14.7426C14.8001 0.465313 14.8646 0.458694 14.926 0.461857C15.6735 0.497684 16.4165 0.598946 17.1463 0.764488C20.662 1.57072 23.4785 3.43571 25.5956 6.35946C27.0371 8.35489 27.8735 10.5922 28.1356 13.0411C28.1666 13.3311 28.1908 13.6219 28.2182 13.9121ZM11.756 17.8794C10.5755 18.7925 9.23512 19.1533 7.75366 19.0248C7.75769 19.0435 7.75713 19.0499 7.75971 19.0519C7.78304 19.0683 7.80665 19.0847 7.83083 19.0994C9.34396 20.0208 10.9852 20.3833 12.7463 20.2267C13.9499 20.1193 15.0898 19.7925 16.1025 19.1299C18.6162 17.4852 19.8276 15.1261 19.8477 12.1384C19.8477 12.0368 19.8708 11.972 19.9549 11.9115C20.18 11.7476 20.3897 11.5635 20.5814 11.3616C20.8199 11.1176 21.0342 10.851 21.2212 10.5657C20.7147 10.7736 20.231 10.9242 19.7147 10.9688C20.2474 10.5928 20.6361 10.1136 20.8532 9.46893C20.7853 9.50436 20.7432 9.52509 20.7024 9.54755C20.2429 9.79715 19.7523 9.98452 19.2434 10.1047C19.1435 10.1289 19.0726 10.1159 18.9909 10.0368C17.6248 8.71828 15.3717 9.12946 14.5566 10.843C14.3025 11.3648 14.2243 11.9549 14.3337 12.5248C14.3556 12.6418 14.3337 12.6786 14.209 12.659C14.048 12.6337 13.8836 12.6325 13.7224 12.6095C11.7172 12.3216 10.0533 11.4098 8.73064 9.87407C8.63707 9.76465 8.61 9.79172 8.55471 9.89854C7.96358 11.0411 8.26965 12.4995 9.27457 13.3112L9.47066 13.4696C9.01743 13.4523 8.62497 13.3296 8.21696 13.1206C8.31458 14.5721 9.0445 15.4751 10.4148 15.8903C10.0278 15.9929 9.62305 16.0092 9.22907 15.9381C9.41566 16.6983 10.2809 17.7901 11.756 17.8794Z" fill="white"/>
</svg>
